<mxfile host="Electron" agent="Mozilla/5.0 (Windows NT 10.0; Win64; x64) AppleWebKit/537.36 (KHTML, like Gecko) draw.io/26.2.2 Chrome/134.0.6998.178 Electron/35.1.2 Safari/537.36" version="26.2.2" pages="6">
  <diagram name="segments" id="ErVQqbLNDup61RfdMaZb">
    <mxGraphModel dx="993" dy="814" grid="1" gridSize="10" guides="1" tooltips="1" connect="1" arrows="1" fold="1" page="1" pageScale="1" pageWidth="850" pageHeight="1100" math="0" shadow="0">
      <root>
        <mxCell id="0" />
        <mxCell id="1" parent="0" />
        <mxCell id="BhPr6Xxbmmiy7TnEPJib-10" value="" style="rounded=0;whiteSpace=wrap;html=1;" vertex="1" parent="1">
          <mxGeometry x="140" y="120" width="100" height="400" as="geometry" />
        </mxCell>
        <mxCell id="BhPr6Xxbmmiy7TnEPJib-4" value="&lt;b&gt;Stack&lt;/b&gt;" style="rounded=0;whiteSpace=wrap;html=1;fillColor=#fff2cc;strokeColor=#d6b656;fontColor=#000000;" vertex="1" parent="1">
          <mxGeometry x="240" y="120" width="120" height="80" as="geometry" />
        </mxCell>
        <mxCell id="BhPr6Xxbmmiy7TnEPJib-5" value="Heap" style="rounded=0;whiteSpace=wrap;html=1;fillColor=#d5e8d4;strokeColor=#82b366;fontStyle=1;fontColor=#000000;" vertex="1" parent="1">
          <mxGeometry x="240" y="200" width="120" height="220" as="geometry" />
        </mxCell>
        <mxCell id="BhPr6Xxbmmiy7TnEPJib-6" value="Globals and Constants" style="rounded=0;whiteSpace=wrap;html=1;fillColor=#f5f5f5;fontColor=#000000;strokeColor=#666666;fontStyle=1" vertex="1" parent="1">
          <mxGeometry x="240" y="420" width="120" height="60" as="geometry" />
        </mxCell>
        <mxCell id="BhPr6Xxbmmiy7TnEPJib-7" value="Code" style="rounded=0;whiteSpace=wrap;html=1;fillColor=#f5f5f5;fontColor=#000000;strokeColor=#666666;fontStyle=1" vertex="1" parent="1">
          <mxGeometry x="240" y="480" width="120" height="40" as="geometry" />
        </mxCell>
        <mxCell id="BhPr6Xxbmmiy7TnEPJib-8" value="Lowest Memory Address&lt;br&gt;(0x00000000)" style="text;html=1;align=center;verticalAlign=middle;whiteSpace=wrap;rounded=0;" vertex="1" parent="1">
          <mxGeometry x="145" y="478" width="90" height="40" as="geometry" />
        </mxCell>
        <mxCell id="BhPr6Xxbmmiy7TnEPJib-9" value="Highest Memory&lt;br&gt;Address" style="text;html=1;align=center;verticalAlign=middle;whiteSpace=wrap;rounded=0;" vertex="1" parent="1">
          <mxGeometry x="145" y="122" width="90" height="30" as="geometry" />
        </mxCell>
        <mxCell id="BhPr6Xxbmmiy7TnEPJib-12" value="" style="rounded=0;whiteSpace=wrap;html=1;" vertex="1" parent="1">
          <mxGeometry x="360" y="120" width="200" height="400" as="geometry" />
        </mxCell>
        <mxCell id="BhPr6Xxbmmiy7TnEPJib-15" value="&lt;ul&gt;&lt;li&gt;Managed by compiler&lt;/li&gt;&lt;li style=&quot;&quot;&gt;Small&lt;/li&gt;&lt;li style=&quot;&quot;&gt;Grows from highest address to lowest&lt;/li&gt;&lt;/ul&gt;" style="rounded=0;whiteSpace=wrap;html=1;align=left;" vertex="1" parent="1">
          <mxGeometry x="360" y="120" width="200" height="80" as="geometry" />
        </mxCell>
        <mxCell id="BhPr6Xxbmmiy7TnEPJib-13" value="&lt;i&gt;&quot;Bottom&quot;&amp;nbsp;&lt;/i&gt;" style="text;html=1;align=right;verticalAlign=middle;whiteSpace=wrap;rounded=0;fontColor=#000000;" vertex="1" parent="1">
          <mxGeometry x="202" y="114" width="158" height="30" as="geometry" />
        </mxCell>
        <mxCell id="BhPr6Xxbmmiy7TnEPJib-14" value="&quot;Top&quot;" style="text;html=1;align=right;verticalAlign=middle;whiteSpace=wrap;rounded=0;fontStyle=2;fontColor=#000000;" vertex="1" parent="1">
          <mxGeometry x="188" y="173" width="161" height="30" as="geometry" />
        </mxCell>
        <mxCell id="BhPr6Xxbmmiy7TnEPJib-17" value="&lt;ul&gt;&lt;li&gt;Managed by programmer&lt;/li&gt;&lt;li style=&quot;&quot;&gt;Large&lt;/li&gt;&lt;li style=&quot;&quot;&gt;Data placed anywhere&lt;/li&gt;&lt;/ul&gt;" style="rounded=0;whiteSpace=wrap;html=1;align=left;" vertex="1" parent="1">
          <mxGeometry x="360" y="200" width="200" height="220" as="geometry" />
        </mxCell>
        <mxCell id="BhPr6Xxbmmiy7TnEPJib-18" value="" style="endArrow=classic;html=1;rounded=0;fontColor=#000000;" edge="1" parent="1">
          <mxGeometry width="50" height="50" relative="1" as="geometry">
            <mxPoint x="333" y="137" as="sourcePoint" />
            <mxPoint x="333" y="180" as="targetPoint" />
          </mxGeometry>
        </mxCell>
      </root>
    </mxGraphModel>
  </diagram>
  <diagram id="Lry7xZyXnc6JYuEpelEq" name="dynamic">
    <mxGraphModel dx="1086" dy="908" grid="1" gridSize="10" guides="1" tooltips="1" connect="1" arrows="1" fold="1" page="1" pageScale="1" pageWidth="850" pageHeight="1100" math="0" shadow="0">
      <root>
        <mxCell id="0" />
        <mxCell id="1" parent="0" />
        <mxCell id="G0XGZ-lW0dX9mhr_Yp6k-19" value="Heap" style="rounded=0;whiteSpace=wrap;html=1;dashed=1;verticalAlign=top;fontStyle=1;fillColor=#d5e8d4;strokeColor=#82b366;fontColor=#000000;" vertex="1" parent="1">
          <mxGeometry x="280" y="60" width="480" height="240" as="geometry" />
        </mxCell>
        <mxCell id="G0XGZ-lW0dX9mhr_Yp6k-18" value="Stack" style="rounded=0;whiteSpace=wrap;html=1;dashed=1;verticalAlign=top;fontStyle=1;fillColor=#fff2cc;strokeColor=#d6b656;fontColor=#000000;" vertex="1" parent="1">
          <mxGeometry x="50" y="60" width="210" height="240" as="geometry" />
        </mxCell>
        <mxCell id="G0XGZ-lW0dX9mhr_Yp6k-3" value="" style="rounded=0;whiteSpace=wrap;html=1;" vertex="1" parent="1">
          <mxGeometry x="60" y="90" width="190" height="80" as="geometry" />
        </mxCell>
        <mxCell id="G0XGZ-lW0dX9mhr_Yp6k-7" value="&lt;i&gt;main stack frame&lt;/i&gt;" style="text;html=1;strokeColor=none;fillColor=none;align=left;verticalAlign=middle;whiteSpace=wrap;rounded=0;" vertex="1" parent="1">
          <mxGeometry x="60" y="90" width="190" height="20" as="geometry" />
        </mxCell>
        <mxCell id="G0XGZ-lW0dX9mhr_Yp6k-13" value="5" style="rounded=0;whiteSpace=wrap;html=1;" vertex="1" parent="1">
          <mxGeometry x="400" y="140" width="70" height="30" as="geometry" />
        </mxCell>
        <mxCell id="G0XGZ-lW0dX9mhr_Yp6k-14" value="Hello, world" style="rounded=0;whiteSpace=wrap;html=1;" vertex="1" parent="1">
          <mxGeometry x="560" y="220" width="110" height="30" as="geometry" />
        </mxCell>
        <mxCell id="G0XGZ-lW0dX9mhr_Yp6k-20" value="" style="rounded=0;whiteSpace=wrap;html=1;" vertex="1" parent="1">
          <mxGeometry x="60" y="170" width="190" height="80" as="geometry" />
        </mxCell>
        <mxCell id="G0XGZ-lW0dX9mhr_Yp6k-21" value="&lt;i&gt;foo&lt;/i&gt;" style="text;html=1;strokeColor=none;fillColor=none;align=left;verticalAlign=middle;whiteSpace=wrap;rounded=0;" vertex="1" parent="1">
          <mxGeometry x="60" y="170" width="190" height="20" as="geometry" />
        </mxCell>
        <mxCell id="G0XGZ-lW0dX9mhr_Yp6k-22" value="" style="group" vertex="1" connectable="0" parent="1">
          <mxGeometry x="100" y="120" width="110" height="30" as="geometry" />
        </mxCell>
        <mxCell id="G0XGZ-lW0dX9mhr_Yp6k-23" value="1" style="rounded=0;whiteSpace=wrap;html=1;" vertex="1" parent="G0XGZ-lW0dX9mhr_Yp6k-22">
          <mxGeometry x="40" width="70" height="30" as="geometry" />
        </mxCell>
        <mxCell id="G0XGZ-lW0dX9mhr_Yp6k-24" value="x" style="text;html=1;strokeColor=none;fillColor=none;align=center;verticalAlign=middle;whiteSpace=wrap;rounded=0;" vertex="1" parent="G0XGZ-lW0dX9mhr_Yp6k-22">
          <mxGeometry x="-20" y="5" width="60" height="20" as="geometry" />
        </mxCell>
        <mxCell id="G0XGZ-lW0dX9mhr_Yp6k-25" value="" style="group" vertex="1" connectable="0" parent="1">
          <mxGeometry x="100" y="196" width="110" height="30" as="geometry" />
        </mxCell>
        <mxCell id="G0XGZ-lW0dX9mhr_Yp6k-26" value="2" style="rounded=0;whiteSpace=wrap;html=1;" vertex="1" parent="G0XGZ-lW0dX9mhr_Yp6k-25">
          <mxGeometry x="40" width="70" height="30" as="geometry" />
        </mxCell>
        <mxCell id="G0XGZ-lW0dX9mhr_Yp6k-27" value="y" style="text;html=1;strokeColor=none;fillColor=none;align=center;verticalAlign=middle;whiteSpace=wrap;rounded=0;" vertex="1" parent="G0XGZ-lW0dX9mhr_Yp6k-25">
          <mxGeometry x="-20" y="5" width="60" height="20" as="geometry" />
        </mxCell>
        <mxCell id="aGD3e7fmg5OK5vzeBJv--1" value="Heap" style="rounded=0;whiteSpace=wrap;html=1;dashed=1;verticalAlign=top;fontStyle=1;fillColor=#d5e8d4;strokeColor=#82b366;fontColor=#000000;" vertex="1" parent="1">
          <mxGeometry x="280" y="410" width="480" height="240" as="geometry" />
        </mxCell>
        <mxCell id="aGD3e7fmg5OK5vzeBJv--2" value="Stack" style="rounded=0;whiteSpace=wrap;html=1;dashed=1;verticalAlign=top;fontStyle=1;fillColor=#fff2cc;strokeColor=#d6b656;fontColor=#000000;" vertex="1" parent="1">
          <mxGeometry x="50" y="410" width="210" height="240" as="geometry" />
        </mxCell>
        <mxCell id="aGD3e7fmg5OK5vzeBJv--3" value="" style="rounded=0;whiteSpace=wrap;html=1;" vertex="1" parent="1">
          <mxGeometry x="60" y="440" width="190" height="80" as="geometry" />
        </mxCell>
        <mxCell id="aGD3e7fmg5OK5vzeBJv--4" value="&lt;i&gt;main stack frame&lt;/i&gt;" style="text;html=1;strokeColor=none;fillColor=none;align=left;verticalAlign=middle;whiteSpace=wrap;rounded=0;" vertex="1" parent="1">
          <mxGeometry x="60" y="440" width="190" height="20" as="geometry" />
        </mxCell>
        <mxCell id="aGD3e7fmg5OK5vzeBJv--5" value="5" style="rounded=0;whiteSpace=wrap;html=1;" vertex="1" parent="1">
          <mxGeometry x="400" y="490" width="70" height="30" as="geometry" />
        </mxCell>
        <mxCell id="aGD3e7fmg5OK5vzeBJv--6" value="Hello, world" style="rounded=0;whiteSpace=wrap;html=1;" vertex="1" parent="1">
          <mxGeometry x="560" y="570" width="110" height="30" as="geometry" />
        </mxCell>
        <mxCell id="aGD3e7fmg5OK5vzeBJv--9" value="" style="group" vertex="1" connectable="0" parent="1">
          <mxGeometry x="100" y="470" width="110" height="30" as="geometry" />
        </mxCell>
        <mxCell id="aGD3e7fmg5OK5vzeBJv--10" value="1" style="rounded=0;whiteSpace=wrap;html=1;" vertex="1" parent="aGD3e7fmg5OK5vzeBJv--9">
          <mxGeometry x="40" width="70" height="30" as="geometry" />
        </mxCell>
        <mxCell id="aGD3e7fmg5OK5vzeBJv--11" value="x" style="text;html=1;strokeColor=none;fillColor=none;align=center;verticalAlign=middle;whiteSpace=wrap;rounded=0;" vertex="1" parent="aGD3e7fmg5OK5vzeBJv--9">
          <mxGeometry x="-20" y="5" width="60" height="20" as="geometry" />
        </mxCell>
        <mxCell id="aGD3e7fmg5OK5vzeBJv--15" value="Heap" style="rounded=0;whiteSpace=wrap;html=1;dashed=1;verticalAlign=top;fontStyle=1;fillColor=#d5e8d4;strokeColor=#82b366;fontColor=#000000;" vertex="1" parent="1">
          <mxGeometry x="280" y="700" width="480" height="240" as="geometry" />
        </mxCell>
        <mxCell id="aGD3e7fmg5OK5vzeBJv--16" value="Stack" style="rounded=0;whiteSpace=wrap;html=1;dashed=1;verticalAlign=top;fontStyle=1;fillColor=#fff2cc;strokeColor=#d6b656;fontColor=#000000;" vertex="1" parent="1">
          <mxGeometry x="50" y="700" width="210" height="300" as="geometry" />
        </mxCell>
        <mxCell id="aGD3e7fmg5OK5vzeBJv--17" value="" style="rounded=0;whiteSpace=wrap;html=1;" vertex="1" parent="1">
          <mxGeometry x="60" y="730" width="190" height="80" as="geometry" />
        </mxCell>
        <mxCell id="aGD3e7fmg5OK5vzeBJv--18" value="&lt;i&gt;main stack frame&lt;/i&gt;" style="text;html=1;strokeColor=none;fillColor=none;align=left;verticalAlign=middle;whiteSpace=wrap;rounded=0;" vertex="1" parent="1">
          <mxGeometry x="60" y="730" width="190" height="20" as="geometry" />
        </mxCell>
        <mxCell id="aGD3e7fmg5OK5vzeBJv--19" value="5" style="rounded=0;whiteSpace=wrap;html=1;" vertex="1" parent="1">
          <mxGeometry x="400" y="780" width="70" height="30" as="geometry" />
        </mxCell>
        <mxCell id="aGD3e7fmg5OK5vzeBJv--20" value="Hello, world" style="rounded=0;whiteSpace=wrap;html=1;" vertex="1" parent="1">
          <mxGeometry x="560" y="860" width="110" height="30" as="geometry" />
        </mxCell>
        <mxCell id="aGD3e7fmg5OK5vzeBJv--21" value="" style="group" vertex="1" connectable="0" parent="1">
          <mxGeometry x="100" y="760" width="110" height="30" as="geometry" />
        </mxCell>
        <mxCell id="aGD3e7fmg5OK5vzeBJv--22" value="1" style="rounded=0;whiteSpace=wrap;html=1;" vertex="1" parent="aGD3e7fmg5OK5vzeBJv--21">
          <mxGeometry x="40" width="70" height="30" as="geometry" />
        </mxCell>
        <mxCell id="aGD3e7fmg5OK5vzeBJv--23" value="x" style="text;html=1;strokeColor=none;fillColor=none;align=center;verticalAlign=middle;whiteSpace=wrap;rounded=0;" vertex="1" parent="aGD3e7fmg5OK5vzeBJv--21">
          <mxGeometry x="-20" y="5" width="60" height="20" as="geometry" />
        </mxCell>
        <mxCell id="aGD3e7fmg5OK5vzeBJv--24" value="" style="rounded=0;whiteSpace=wrap;html=1;" vertex="1" parent="1">
          <mxGeometry x="60" y="810" width="190" height="140" as="geometry" />
        </mxCell>
        <mxCell id="aGD3e7fmg5OK5vzeBJv--25" value="&lt;i&gt;foo&lt;/i&gt;" style="text;html=1;strokeColor=none;fillColor=none;align=left;verticalAlign=middle;whiteSpace=wrap;rounded=0;" vertex="1" parent="1">
          <mxGeometry x="60" y="810" width="190" height="20" as="geometry" />
        </mxCell>
        <mxCell id="aGD3e7fmg5OK5vzeBJv--26" value="" style="group" vertex="1" connectable="0" parent="1">
          <mxGeometry x="100" y="836" width="110" height="30" as="geometry" />
        </mxCell>
        <mxCell id="aGD3e7fmg5OK5vzeBJv--27" value="2" style="rounded=0;whiteSpace=wrap;html=1;" vertex="1" parent="aGD3e7fmg5OK5vzeBJv--26">
          <mxGeometry x="40" width="70" height="30" as="geometry" />
        </mxCell>
        <mxCell id="aGD3e7fmg5OK5vzeBJv--28" value="y" style="text;html=1;strokeColor=none;fillColor=none;align=center;verticalAlign=middle;whiteSpace=wrap;rounded=0;" vertex="1" parent="aGD3e7fmg5OK5vzeBJv--26">
          <mxGeometry x="-20" y="5" width="60" height="20" as="geometry" />
        </mxCell>
        <mxCell id="aGD3e7fmg5OK5vzeBJv--37" value="" style="group" vertex="1" connectable="0" parent="1">
          <mxGeometry x="100" y="866" width="110" height="30" as="geometry" />
        </mxCell>
        <mxCell id="aGD3e7fmg5OK5vzeBJv--38" value="0x40" style="rounded=0;whiteSpace=wrap;html=1;" vertex="1" parent="aGD3e7fmg5OK5vzeBJv--37">
          <mxGeometry x="40" width="70" height="30" as="geometry" />
        </mxCell>
        <mxCell id="aGD3e7fmg5OK5vzeBJv--39" value="p1" style="text;html=1;strokeColor=none;fillColor=none;align=center;verticalAlign=middle;whiteSpace=wrap;rounded=0;" vertex="1" parent="aGD3e7fmg5OK5vzeBJv--37">
          <mxGeometry x="-20" y="5" width="60" height="20" as="geometry" />
        </mxCell>
        <mxCell id="aGD3e7fmg5OK5vzeBJv--40" value="" style="group" vertex="1" connectable="0" parent="1">
          <mxGeometry x="100" y="896" width="110" height="30" as="geometry" />
        </mxCell>
        <mxCell id="aGD3e7fmg5OK5vzeBJv--41" value="0x80" style="rounded=0;whiteSpace=wrap;html=1;" vertex="1" parent="aGD3e7fmg5OK5vzeBJv--40">
          <mxGeometry x="40" width="70" height="30" as="geometry" />
        </mxCell>
        <mxCell id="aGD3e7fmg5OK5vzeBJv--42" value="p2" style="text;html=1;strokeColor=none;fillColor=none;align=center;verticalAlign=middle;whiteSpace=wrap;rounded=0;" vertex="1" parent="aGD3e7fmg5OK5vzeBJv--40">
          <mxGeometry x="-20" y="5" width="60" height="20" as="geometry" />
        </mxCell>
        <mxCell id="aGD3e7fmg5OK5vzeBJv--44" value="0x80" style="text;html=1;align=center;verticalAlign=middle;whiteSpace=wrap;rounded=0;fontColor=#000000;" vertex="1" parent="1">
          <mxGeometry x="585" y="835" width="60" height="30" as="geometry" />
        </mxCell>
        <mxCell id="aGD3e7fmg5OK5vzeBJv--45" value="0x40" style="text;html=1;align=center;verticalAlign=middle;whiteSpace=wrap;rounded=0;fontColor=#000000;" vertex="1" parent="1">
          <mxGeometry x="405" y="755" width="60" height="30" as="geometry" />
        </mxCell>
        <mxCell id="aGD3e7fmg5OK5vzeBJv--46" value="" style="curved=1;endArrow=classic;html=1;rounded=0;exitX=1;exitY=0.5;exitDx=0;exitDy=0;entryX=0;entryY=0.5;entryDx=0;entryDy=0;" edge="1" parent="1" source="aGD3e7fmg5OK5vzeBJv--38" target="aGD3e7fmg5OK5vzeBJv--19">
          <mxGeometry width="50" height="50" relative="1" as="geometry">
            <mxPoint x="340" y="890" as="sourcePoint" />
            <mxPoint x="390" y="840" as="targetPoint" />
            <Array as="points">
              <mxPoint x="290" y="830" />
              <mxPoint x="330" y="810" />
            </Array>
          </mxGeometry>
        </mxCell>
        <mxCell id="aGD3e7fmg5OK5vzeBJv--47" value="" style="curved=1;endArrow=classic;html=1;rounded=0;exitX=1;exitY=0.5;exitDx=0;exitDy=0;entryX=0;entryY=0.5;entryDx=0;entryDy=0;" edge="1" parent="1" source="aGD3e7fmg5OK5vzeBJv--41" target="aGD3e7fmg5OK5vzeBJv--20">
          <mxGeometry width="50" height="50" relative="1" as="geometry">
            <mxPoint x="220" y="891" as="sourcePoint" />
            <mxPoint x="410" y="805" as="targetPoint" />
            <Array as="points">
              <mxPoint x="300" y="840" />
              <mxPoint x="400" y="890" />
            </Array>
          </mxGeometry>
        </mxCell>
      </root>
    </mxGraphModel>
  </diagram>
  <diagram name="free-leaks" id="IemM1ag8BRGPtzjWfdj1">
    <mxGraphModel dx="1303" dy="2190" grid="1" gridSize="10" guides="1" tooltips="1" connect="1" arrows="1" fold="1" page="1" pageScale="1" pageWidth="850" pageHeight="1100" math="0" shadow="0">
      <root>
        <mxCell id="D1Yihgs4txajRbLT80vB-0" />
        <mxCell id="D1Yihgs4txajRbLT80vB-1" parent="D1Yihgs4txajRbLT80vB-0" />
        <mxCell id="D1Yihgs4txajRbLT80vB-25" value="Heap" style="rounded=0;whiteSpace=wrap;html=1;dashed=1;verticalAlign=top;fontStyle=1;fillColor=#d5e8d4;strokeColor=#82b366;fontColor=#000000;" vertex="1" parent="D1Yihgs4txajRbLT80vB-1">
          <mxGeometry x="280" y="700" width="480" height="240" as="geometry" />
        </mxCell>
        <mxCell id="D1Yihgs4txajRbLT80vB-26" value="Stack" style="rounded=0;whiteSpace=wrap;html=1;dashed=1;verticalAlign=top;fontStyle=1;fillColor=#fff2cc;strokeColor=#d6b656;fontColor=#000000;" vertex="1" parent="D1Yihgs4txajRbLT80vB-1">
          <mxGeometry x="50" y="700" width="210" height="300" as="geometry" />
        </mxCell>
        <mxCell id="D1Yihgs4txajRbLT80vB-27" value="" style="rounded=0;whiteSpace=wrap;html=1;" vertex="1" parent="D1Yihgs4txajRbLT80vB-1">
          <mxGeometry x="60" y="730" width="190" height="80" as="geometry" />
        </mxCell>
        <mxCell id="D1Yihgs4txajRbLT80vB-28" value="&lt;i&gt;main stack frame&lt;/i&gt;" style="text;html=1;strokeColor=none;fillColor=none;align=left;verticalAlign=middle;whiteSpace=wrap;rounded=0;" vertex="1" parent="D1Yihgs4txajRbLT80vB-1">
          <mxGeometry x="60" y="730" width="190" height="20" as="geometry" />
        </mxCell>
        <mxCell id="D1Yihgs4txajRbLT80vB-29" value="5" style="rounded=0;whiteSpace=wrap;html=1;" vertex="1" parent="D1Yihgs4txajRbLT80vB-1">
          <mxGeometry x="400" y="780" width="70" height="30" as="geometry" />
        </mxCell>
        <mxCell id="D1Yihgs4txajRbLT80vB-30" value="Hello, world" style="rounded=0;whiteSpace=wrap;html=1;" vertex="1" parent="D1Yihgs4txajRbLT80vB-1">
          <mxGeometry x="560" y="860" width="110" height="30" as="geometry" />
        </mxCell>
        <mxCell id="D1Yihgs4txajRbLT80vB-31" value="" style="group" vertex="1" connectable="0" parent="D1Yihgs4txajRbLT80vB-1">
          <mxGeometry x="100" y="760" width="110" height="30" as="geometry" />
        </mxCell>
        <mxCell id="D1Yihgs4txajRbLT80vB-32" value="1" style="rounded=0;whiteSpace=wrap;html=1;" vertex="1" parent="D1Yihgs4txajRbLT80vB-31">
          <mxGeometry x="40" width="70" height="30" as="geometry" />
        </mxCell>
        <mxCell id="D1Yihgs4txajRbLT80vB-33" value="x" style="text;html=1;strokeColor=none;fillColor=none;align=center;verticalAlign=middle;whiteSpace=wrap;rounded=0;" vertex="1" parent="D1Yihgs4txajRbLT80vB-31">
          <mxGeometry x="-20" y="5" width="60" height="20" as="geometry" />
        </mxCell>
        <mxCell id="D1Yihgs4txajRbLT80vB-34" value="" style="rounded=0;whiteSpace=wrap;html=1;" vertex="1" parent="D1Yihgs4txajRbLT80vB-1">
          <mxGeometry x="60" y="810" width="190" height="140" as="geometry" />
        </mxCell>
        <mxCell id="D1Yihgs4txajRbLT80vB-35" value="&lt;i&gt;foo&lt;/i&gt;" style="text;html=1;strokeColor=none;fillColor=none;align=left;verticalAlign=middle;whiteSpace=wrap;rounded=0;" vertex="1" parent="D1Yihgs4txajRbLT80vB-1">
          <mxGeometry x="60" y="810" width="190" height="20" as="geometry" />
        </mxCell>
        <mxCell id="D1Yihgs4txajRbLT80vB-36" value="" style="group" vertex="1" connectable="0" parent="D1Yihgs4txajRbLT80vB-1">
          <mxGeometry x="100" y="836" width="110" height="30" as="geometry" />
        </mxCell>
        <mxCell id="D1Yihgs4txajRbLT80vB-37" value="2" style="rounded=0;whiteSpace=wrap;html=1;" vertex="1" parent="D1Yihgs4txajRbLT80vB-36">
          <mxGeometry x="40" width="70" height="30" as="geometry" />
        </mxCell>
        <mxCell id="D1Yihgs4txajRbLT80vB-38" value="y" style="text;html=1;strokeColor=none;fillColor=none;align=center;verticalAlign=middle;whiteSpace=wrap;rounded=0;" vertex="1" parent="D1Yihgs4txajRbLT80vB-36">
          <mxGeometry x="-20" y="5" width="60" height="20" as="geometry" />
        </mxCell>
        <mxCell id="D1Yihgs4txajRbLT80vB-39" value="" style="group" vertex="1" connectable="0" parent="D1Yihgs4txajRbLT80vB-1">
          <mxGeometry x="100" y="866" width="110" height="30" as="geometry" />
        </mxCell>
        <mxCell id="D1Yihgs4txajRbLT80vB-40" value="0x40" style="rounded=0;whiteSpace=wrap;html=1;" vertex="1" parent="D1Yihgs4txajRbLT80vB-39">
          <mxGeometry x="40" width="70" height="30" as="geometry" />
        </mxCell>
        <mxCell id="D1Yihgs4txajRbLT80vB-41" value="p1" style="text;html=1;strokeColor=none;fillColor=none;align=center;verticalAlign=middle;whiteSpace=wrap;rounded=0;" vertex="1" parent="D1Yihgs4txajRbLT80vB-39">
          <mxGeometry x="-20" y="5" width="60" height="20" as="geometry" />
        </mxCell>
        <mxCell id="D1Yihgs4txajRbLT80vB-42" value="" style="group" vertex="1" connectable="0" parent="D1Yihgs4txajRbLT80vB-1">
          <mxGeometry x="100" y="896" width="110" height="30" as="geometry" />
        </mxCell>
        <mxCell id="D1Yihgs4txajRbLT80vB-43" value="0x80" style="rounded=0;whiteSpace=wrap;html=1;" vertex="1" parent="D1Yihgs4txajRbLT80vB-42">
          <mxGeometry x="40" width="70" height="30" as="geometry" />
        </mxCell>
        <mxCell id="D1Yihgs4txajRbLT80vB-44" value="p2" style="text;html=1;strokeColor=none;fillColor=none;align=center;verticalAlign=middle;whiteSpace=wrap;rounded=0;" vertex="1" parent="D1Yihgs4txajRbLT80vB-42">
          <mxGeometry x="-20" y="5" width="60" height="20" as="geometry" />
        </mxCell>
        <mxCell id="D1Yihgs4txajRbLT80vB-45" value="0x80" style="text;html=1;align=center;verticalAlign=middle;whiteSpace=wrap;rounded=0;fontColor=#000000;" vertex="1" parent="D1Yihgs4txajRbLT80vB-1">
          <mxGeometry x="585" y="835" width="60" height="30" as="geometry" />
        </mxCell>
        <mxCell id="D1Yihgs4txajRbLT80vB-46" value="0x40" style="text;html=1;align=center;verticalAlign=middle;whiteSpace=wrap;rounded=0;fontColor=#000000;" vertex="1" parent="D1Yihgs4txajRbLT80vB-1">
          <mxGeometry x="405" y="755" width="60" height="30" as="geometry" />
        </mxCell>
        <mxCell id="D1Yihgs4txajRbLT80vB-47" value="" style="curved=1;endArrow=classic;html=1;rounded=0;exitX=1;exitY=0.5;exitDx=0;exitDy=0;entryX=0;entryY=0.5;entryDx=0;entryDy=0;" edge="1" parent="D1Yihgs4txajRbLT80vB-1" source="D1Yihgs4txajRbLT80vB-40" target="D1Yihgs4txajRbLT80vB-29">
          <mxGeometry width="50" height="50" relative="1" as="geometry">
            <mxPoint x="340" y="890" as="sourcePoint" />
            <mxPoint x="390" y="840" as="targetPoint" />
            <Array as="points">
              <mxPoint x="290" y="830" />
              <mxPoint x="330" y="810" />
            </Array>
          </mxGeometry>
        </mxCell>
        <mxCell id="D1Yihgs4txajRbLT80vB-48" value="" style="curved=1;endArrow=classic;html=1;rounded=0;exitX=1;exitY=0.5;exitDx=0;exitDy=0;entryX=0;entryY=0.5;entryDx=0;entryDy=0;" edge="1" parent="D1Yihgs4txajRbLT80vB-1" source="D1Yihgs4txajRbLT80vB-43" target="D1Yihgs4txajRbLT80vB-30">
          <mxGeometry width="50" height="50" relative="1" as="geometry">
            <mxPoint x="220" y="891" as="sourcePoint" />
            <mxPoint x="410" y="805" as="targetPoint" />
            <Array as="points">
              <mxPoint x="300" y="840" />
              <mxPoint x="400" y="890" />
            </Array>
          </mxGeometry>
        </mxCell>
        <mxCell id="yDn1A7XQaHS74vhvPNHX-0" value="Heap" style="rounded=0;whiteSpace=wrap;html=1;dashed=1;verticalAlign=top;fontStyle=1;fillColor=#d5e8d4;strokeColor=#82b366;fontColor=#000000;" vertex="1" parent="D1Yihgs4txajRbLT80vB-1">
          <mxGeometry x="280" y="360" width="480" height="240" as="geometry" />
        </mxCell>
        <mxCell id="yDn1A7XQaHS74vhvPNHX-1" value="Stack" style="rounded=0;whiteSpace=wrap;html=1;dashed=1;verticalAlign=top;fontStyle=1;fillColor=#fff2cc;strokeColor=#d6b656;fontColor=#000000;" vertex="1" parent="D1Yihgs4txajRbLT80vB-1">
          <mxGeometry x="50" y="360" width="210" height="300" as="geometry" />
        </mxCell>
        <mxCell id="yDn1A7XQaHS74vhvPNHX-2" value="" style="rounded=0;whiteSpace=wrap;html=1;" vertex="1" parent="D1Yihgs4txajRbLT80vB-1">
          <mxGeometry x="60" y="390" width="190" height="80" as="geometry" />
        </mxCell>
        <mxCell id="yDn1A7XQaHS74vhvPNHX-3" value="&lt;i&gt;main stack frame&lt;/i&gt;" style="text;html=1;strokeColor=none;fillColor=none;align=left;verticalAlign=middle;whiteSpace=wrap;rounded=0;" vertex="1" parent="D1Yihgs4txajRbLT80vB-1">
          <mxGeometry x="60" y="390" width="190" height="20" as="geometry" />
        </mxCell>
        <mxCell id="yDn1A7XQaHS74vhvPNHX-4" value="5" style="rounded=0;whiteSpace=wrap;html=1;" vertex="1" parent="D1Yihgs4txajRbLT80vB-1">
          <mxGeometry x="400" y="440" width="70" height="30" as="geometry" />
        </mxCell>
        <mxCell id="yDn1A7XQaHS74vhvPNHX-5" value="Hello, world" style="rounded=0;whiteSpace=wrap;html=1;" vertex="1" parent="D1Yihgs4txajRbLT80vB-1">
          <mxGeometry x="560" y="520" width="110" height="30" as="geometry" />
        </mxCell>
        <mxCell id="yDn1A7XQaHS74vhvPNHX-6" value="" style="group" vertex="1" connectable="0" parent="D1Yihgs4txajRbLT80vB-1">
          <mxGeometry x="100" y="420" width="110" height="30" as="geometry" />
        </mxCell>
        <mxCell id="yDn1A7XQaHS74vhvPNHX-7" value="1" style="rounded=0;whiteSpace=wrap;html=1;" vertex="1" parent="yDn1A7XQaHS74vhvPNHX-6">
          <mxGeometry x="40" width="70" height="30" as="geometry" />
        </mxCell>
        <mxCell id="yDn1A7XQaHS74vhvPNHX-8" value="x" style="text;html=1;strokeColor=none;fillColor=none;align=center;verticalAlign=middle;whiteSpace=wrap;rounded=0;" vertex="1" parent="yDn1A7XQaHS74vhvPNHX-6">
          <mxGeometry x="-20" y="5" width="60" height="20" as="geometry" />
        </mxCell>
        <mxCell id="yDn1A7XQaHS74vhvPNHX-20" value="0x80" style="text;html=1;align=center;verticalAlign=middle;whiteSpace=wrap;rounded=0;fontColor=#000000;" vertex="1" parent="D1Yihgs4txajRbLT80vB-1">
          <mxGeometry x="585" y="495" width="60" height="30" as="geometry" />
        </mxCell>
        <mxCell id="yDn1A7XQaHS74vhvPNHX-21" value="0x40" style="text;html=1;align=center;verticalAlign=middle;whiteSpace=wrap;rounded=0;fontColor=#000000;" vertex="1" parent="D1Yihgs4txajRbLT80vB-1">
          <mxGeometry x="405" y="415" width="60" height="30" as="geometry" />
        </mxCell>
        <mxCell id="yDn1A7XQaHS74vhvPNHX-24" value="Heap" style="rounded=0;whiteSpace=wrap;html=1;dashed=1;verticalAlign=top;fontStyle=1;fillColor=#d5e8d4;strokeColor=#82b366;fontColor=#000000;" vertex="1" parent="D1Yihgs4txajRbLT80vB-1">
          <mxGeometry x="280" y="20" width="480" height="240" as="geometry" />
        </mxCell>
        <mxCell id="yDn1A7XQaHS74vhvPNHX-25" value="Stack" style="rounded=0;whiteSpace=wrap;html=1;dashed=1;verticalAlign=top;fontStyle=1;fillColor=#fff2cc;strokeColor=#d6b656;fontColor=#000000;" vertex="1" parent="D1Yihgs4txajRbLT80vB-1">
          <mxGeometry x="50" y="20" width="210" height="300" as="geometry" />
        </mxCell>
        <mxCell id="yDn1A7XQaHS74vhvPNHX-26" value="" style="rounded=0;whiteSpace=wrap;html=1;" vertex="1" parent="D1Yihgs4txajRbLT80vB-1">
          <mxGeometry x="60" y="50" width="190" height="80" as="geometry" />
        </mxCell>
        <mxCell id="yDn1A7XQaHS74vhvPNHX-27" value="&lt;i&gt;main stack frame&lt;/i&gt;" style="text;html=1;strokeColor=none;fillColor=none;align=left;verticalAlign=middle;whiteSpace=wrap;rounded=0;" vertex="1" parent="D1Yihgs4txajRbLT80vB-1">
          <mxGeometry x="60" y="50" width="190" height="20" as="geometry" />
        </mxCell>
        <mxCell id="yDn1A7XQaHS74vhvPNHX-28" value="?????" style="rounded=0;whiteSpace=wrap;html=1;fillColor=#f5f5f5;fontColor=#333333;strokeColor=#666666;" vertex="1" parent="D1Yihgs4txajRbLT80vB-1">
          <mxGeometry x="400" y="100" width="70" height="30" as="geometry" />
        </mxCell>
        <mxCell id="yDn1A7XQaHS74vhvPNHX-29" value="?????" style="rounded=0;whiteSpace=wrap;html=1;fillColor=#f5f5f5;fontColor=#333333;strokeColor=#666666;" vertex="1" parent="D1Yihgs4txajRbLT80vB-1">
          <mxGeometry x="560" y="180" width="110" height="30" as="geometry" />
        </mxCell>
        <mxCell id="yDn1A7XQaHS74vhvPNHX-30" value="" style="group" vertex="1" connectable="0" parent="D1Yihgs4txajRbLT80vB-1">
          <mxGeometry x="100" y="80" width="110" height="30" as="geometry" />
        </mxCell>
        <mxCell id="yDn1A7XQaHS74vhvPNHX-31" value="1" style="rounded=0;whiteSpace=wrap;html=1;" vertex="1" parent="yDn1A7XQaHS74vhvPNHX-30">
          <mxGeometry x="40" width="70" height="30" as="geometry" />
        </mxCell>
        <mxCell id="yDn1A7XQaHS74vhvPNHX-32" value="x" style="text;html=1;strokeColor=none;fillColor=none;align=center;verticalAlign=middle;whiteSpace=wrap;rounded=0;" vertex="1" parent="yDn1A7XQaHS74vhvPNHX-30">
          <mxGeometry x="-20" y="5" width="60" height="20" as="geometry" />
        </mxCell>
        <mxCell id="yDn1A7XQaHS74vhvPNHX-33" value="" style="rounded=0;whiteSpace=wrap;html=1;" vertex="1" parent="D1Yihgs4txajRbLT80vB-1">
          <mxGeometry x="60" y="130" width="190" height="140" as="geometry" />
        </mxCell>
        <mxCell id="yDn1A7XQaHS74vhvPNHX-34" value="&lt;i&gt;foo&lt;/i&gt;" style="text;html=1;strokeColor=none;fillColor=none;align=left;verticalAlign=middle;whiteSpace=wrap;rounded=0;" vertex="1" parent="D1Yihgs4txajRbLT80vB-1">
          <mxGeometry x="60" y="130" width="190" height="20" as="geometry" />
        </mxCell>
        <mxCell id="yDn1A7XQaHS74vhvPNHX-35" value="" style="group" vertex="1" connectable="0" parent="D1Yihgs4txajRbLT80vB-1">
          <mxGeometry x="100" y="156" width="110" height="30" as="geometry" />
        </mxCell>
        <mxCell id="yDn1A7XQaHS74vhvPNHX-36" value="2" style="rounded=0;whiteSpace=wrap;html=1;" vertex="1" parent="yDn1A7XQaHS74vhvPNHX-35">
          <mxGeometry x="40" width="70" height="30" as="geometry" />
        </mxCell>
        <mxCell id="yDn1A7XQaHS74vhvPNHX-37" value="y" style="text;html=1;strokeColor=none;fillColor=none;align=center;verticalAlign=middle;whiteSpace=wrap;rounded=0;" vertex="1" parent="yDn1A7XQaHS74vhvPNHX-35">
          <mxGeometry x="-20" y="5" width="60" height="20" as="geometry" />
        </mxCell>
        <mxCell id="yDn1A7XQaHS74vhvPNHX-38" value="" style="group" vertex="1" connectable="0" parent="D1Yihgs4txajRbLT80vB-1">
          <mxGeometry x="100" y="186" width="110" height="30" as="geometry" />
        </mxCell>
        <mxCell id="yDn1A7XQaHS74vhvPNHX-39" value="0x40" style="rounded=0;whiteSpace=wrap;html=1;" vertex="1" parent="yDn1A7XQaHS74vhvPNHX-38">
          <mxGeometry x="40" width="70" height="30" as="geometry" />
        </mxCell>
        <mxCell id="yDn1A7XQaHS74vhvPNHX-40" value="p1" style="text;html=1;strokeColor=none;fillColor=none;align=center;verticalAlign=middle;whiteSpace=wrap;rounded=0;" vertex="1" parent="yDn1A7XQaHS74vhvPNHX-38">
          <mxGeometry x="-20" y="5" width="60" height="20" as="geometry" />
        </mxCell>
        <mxCell id="yDn1A7XQaHS74vhvPNHX-41" value="" style="group" vertex="1" connectable="0" parent="D1Yihgs4txajRbLT80vB-1">
          <mxGeometry x="100" y="216" width="110" height="30" as="geometry" />
        </mxCell>
        <mxCell id="yDn1A7XQaHS74vhvPNHX-42" value="0x80" style="rounded=0;whiteSpace=wrap;html=1;" vertex="1" parent="yDn1A7XQaHS74vhvPNHX-41">
          <mxGeometry x="40" width="70" height="30" as="geometry" />
        </mxCell>
        <mxCell id="yDn1A7XQaHS74vhvPNHX-43" value="p2" style="text;html=1;strokeColor=none;fillColor=none;align=center;verticalAlign=middle;whiteSpace=wrap;rounded=0;" vertex="1" parent="yDn1A7XQaHS74vhvPNHX-41">
          <mxGeometry x="-20" y="5" width="60" height="20" as="geometry" />
        </mxCell>
        <mxCell id="yDn1A7XQaHS74vhvPNHX-44" value="0x80" style="text;html=1;align=center;verticalAlign=middle;whiteSpace=wrap;rounded=0;fontColor=#000000;" vertex="1" parent="D1Yihgs4txajRbLT80vB-1">
          <mxGeometry x="585" y="155" width="60" height="30" as="geometry" />
        </mxCell>
        <mxCell id="yDn1A7XQaHS74vhvPNHX-45" value="0x40" style="text;html=1;align=center;verticalAlign=middle;whiteSpace=wrap;rounded=0;fontColor=#000000;" vertex="1" parent="D1Yihgs4txajRbLT80vB-1">
          <mxGeometry x="405" y="75" width="60" height="30" as="geometry" />
        </mxCell>
        <mxCell id="yDn1A7XQaHS74vhvPNHX-46" value="" style="curved=1;endArrow=classic;html=1;rounded=0;exitX=1;exitY=0.5;exitDx=0;exitDy=0;entryX=0;entryY=0.5;entryDx=0;entryDy=0;" edge="1" parent="D1Yihgs4txajRbLT80vB-1" source="yDn1A7XQaHS74vhvPNHX-39" target="yDn1A7XQaHS74vhvPNHX-28">
          <mxGeometry width="50" height="50" relative="1" as="geometry">
            <mxPoint x="340" y="210" as="sourcePoint" />
            <mxPoint x="390" y="160" as="targetPoint" />
            <Array as="points">
              <mxPoint x="290" y="150" />
              <mxPoint x="330" y="130" />
            </Array>
          </mxGeometry>
        </mxCell>
        <mxCell id="yDn1A7XQaHS74vhvPNHX-47" value="" style="curved=1;endArrow=classic;html=1;rounded=0;exitX=1;exitY=0.5;exitDx=0;exitDy=0;entryX=0;entryY=0.5;entryDx=0;entryDy=0;" edge="1" parent="D1Yihgs4txajRbLT80vB-1" source="yDn1A7XQaHS74vhvPNHX-42" target="yDn1A7XQaHS74vhvPNHX-29">
          <mxGeometry width="50" height="50" relative="1" as="geometry">
            <mxPoint x="220" y="211" as="sourcePoint" />
            <mxPoint x="410" y="125" as="targetPoint" />
            <Array as="points">
              <mxPoint x="300" y="160" />
              <mxPoint x="400" y="210" />
            </Array>
          </mxGeometry>
        </mxCell>
        <mxCell id="yDn1A7XQaHS74vhvPNHX-48" value="Heap" style="rounded=0;whiteSpace=wrap;html=1;dashed=1;verticalAlign=top;fontStyle=1;fillColor=#d5e8d4;strokeColor=#82b366;fontColor=#000000;" vertex="1" parent="D1Yihgs4txajRbLT80vB-1">
          <mxGeometry x="280" y="-310" width="480" height="240" as="geometry" />
        </mxCell>
        <mxCell id="yDn1A7XQaHS74vhvPNHX-49" value="Stack" style="rounded=0;whiteSpace=wrap;html=1;dashed=1;verticalAlign=top;fontStyle=1;fillColor=#fff2cc;strokeColor=#d6b656;fontColor=#000000;" vertex="1" parent="D1Yihgs4txajRbLT80vB-1">
          <mxGeometry x="50" y="-310" width="210" height="300" as="geometry" />
        </mxCell>
        <mxCell id="yDn1A7XQaHS74vhvPNHX-50" value="" style="rounded=0;whiteSpace=wrap;html=1;" vertex="1" parent="D1Yihgs4txajRbLT80vB-1">
          <mxGeometry x="60" y="-280" width="190" height="80" as="geometry" />
        </mxCell>
        <mxCell id="yDn1A7XQaHS74vhvPNHX-51" value="&lt;i&gt;main stack frame&lt;/i&gt;" style="text;html=1;strokeColor=none;fillColor=none;align=left;verticalAlign=middle;whiteSpace=wrap;rounded=0;" vertex="1" parent="D1Yihgs4txajRbLT80vB-1">
          <mxGeometry x="60" y="-280" width="190" height="20" as="geometry" />
        </mxCell>
        <mxCell id="yDn1A7XQaHS74vhvPNHX-54" value="" style="group" vertex="1" connectable="0" parent="D1Yihgs4txajRbLT80vB-1">
          <mxGeometry x="100" y="-250" width="110" height="30" as="geometry" />
        </mxCell>
        <mxCell id="yDn1A7XQaHS74vhvPNHX-55" value="1" style="rounded=0;whiteSpace=wrap;html=1;" vertex="1" parent="yDn1A7XQaHS74vhvPNHX-54">
          <mxGeometry x="40" width="70" height="30" as="geometry" />
        </mxCell>
        <mxCell id="yDn1A7XQaHS74vhvPNHX-56" value="x" style="text;html=1;strokeColor=none;fillColor=none;align=center;verticalAlign=middle;whiteSpace=wrap;rounded=0;" vertex="1" parent="yDn1A7XQaHS74vhvPNHX-54">
          <mxGeometry x="-20" y="5" width="60" height="20" as="geometry" />
        </mxCell>
        <mxCell id="yDn1A7XQaHS74vhvPNHX-57" value="" style="rounded=0;whiteSpace=wrap;html=1;" vertex="1" parent="D1Yihgs4txajRbLT80vB-1">
          <mxGeometry x="60" y="-200" width="190" height="140" as="geometry" />
        </mxCell>
        <mxCell id="yDn1A7XQaHS74vhvPNHX-58" value="&lt;i&gt;foo&lt;/i&gt;" style="text;html=1;strokeColor=none;fillColor=none;align=left;verticalAlign=middle;whiteSpace=wrap;rounded=0;" vertex="1" parent="D1Yihgs4txajRbLT80vB-1">
          <mxGeometry x="60" y="-200" width="190" height="20" as="geometry" />
        </mxCell>
        <mxCell id="yDn1A7XQaHS74vhvPNHX-59" value="" style="group" vertex="1" connectable="0" parent="D1Yihgs4txajRbLT80vB-1">
          <mxGeometry x="100" y="-174" width="110" height="30" as="geometry" />
        </mxCell>
        <mxCell id="yDn1A7XQaHS74vhvPNHX-60" value="2" style="rounded=0;whiteSpace=wrap;html=1;" vertex="1" parent="yDn1A7XQaHS74vhvPNHX-59">
          <mxGeometry x="40" width="70" height="30" as="geometry" />
        </mxCell>
        <mxCell id="yDn1A7XQaHS74vhvPNHX-61" value="y" style="text;html=1;strokeColor=none;fillColor=none;align=center;verticalAlign=middle;whiteSpace=wrap;rounded=0;" vertex="1" parent="yDn1A7XQaHS74vhvPNHX-59">
          <mxGeometry x="-20" y="5" width="60" height="20" as="geometry" />
        </mxCell>
        <mxCell id="yDn1A7XQaHS74vhvPNHX-62" value="" style="group" vertex="1" connectable="0" parent="D1Yihgs4txajRbLT80vB-1">
          <mxGeometry x="100" y="-144" width="110" height="30" as="geometry" />
        </mxCell>
        <mxCell id="yDn1A7XQaHS74vhvPNHX-63" value="0" style="rounded=0;whiteSpace=wrap;html=1;" vertex="1" parent="yDn1A7XQaHS74vhvPNHX-62">
          <mxGeometry x="40" width="70" height="30" as="geometry" />
        </mxCell>
        <mxCell id="yDn1A7XQaHS74vhvPNHX-64" value="p1" style="text;html=1;strokeColor=none;fillColor=none;align=center;verticalAlign=middle;whiteSpace=wrap;rounded=0;" vertex="1" parent="yDn1A7XQaHS74vhvPNHX-62">
          <mxGeometry x="-20" y="5" width="60" height="20" as="geometry" />
        </mxCell>
        <mxCell id="yDn1A7XQaHS74vhvPNHX-65" value="" style="group" vertex="1" connectable="0" parent="D1Yihgs4txajRbLT80vB-1">
          <mxGeometry x="100" y="-114" width="110" height="30" as="geometry" />
        </mxCell>
        <mxCell id="yDn1A7XQaHS74vhvPNHX-66" value="0" style="rounded=0;whiteSpace=wrap;html=1;" vertex="1" parent="yDn1A7XQaHS74vhvPNHX-65">
          <mxGeometry x="40" width="70" height="30" as="geometry" />
        </mxCell>
        <mxCell id="yDn1A7XQaHS74vhvPNHX-67" value="p2" style="text;html=1;strokeColor=none;fillColor=none;align=center;verticalAlign=middle;whiteSpace=wrap;rounded=0;" vertex="1" parent="yDn1A7XQaHS74vhvPNHX-65">
          <mxGeometry x="-20" y="5" width="60" height="20" as="geometry" />
        </mxCell>
      </root>
    </mxGraphModel>
  </diagram>
  <diagram name="arrays" id="TvmHvfWyfD7vlcm2H6ri">
    <mxGraphModel dx="1303" dy="2190" grid="1" gridSize="10" guides="1" tooltips="1" connect="1" arrows="1" fold="1" page="1" pageScale="1" pageWidth="850" pageHeight="1100" math="0" shadow="0">
      <root>
        <mxCell id="GelBJ9jALFVcU31ypJkc-0" />
        <mxCell id="GelBJ9jALFVcU31ypJkc-1" parent="GelBJ9jALFVcU31ypJkc-0" />
        <mxCell id="GelBJ9jALFVcU31ypJkc-16" value="Heap" style="rounded=0;whiteSpace=wrap;html=1;dashed=1;verticalAlign=top;fontStyle=1;fillColor=#d5e8d4;strokeColor=#82b366;fontColor=#000000;" vertex="1" parent="GelBJ9jALFVcU31ypJkc-1">
          <mxGeometry x="270" y="40" width="480" height="240" as="geometry" />
        </mxCell>
        <mxCell id="GelBJ9jALFVcU31ypJkc-17" value="Stack" style="rounded=0;whiteSpace=wrap;html=1;dashed=1;verticalAlign=top;fontStyle=1;fillColor=#fff2cc;strokeColor=#d6b656;fontColor=#000000;" vertex="1" parent="GelBJ9jALFVcU31ypJkc-1">
          <mxGeometry x="40" y="40" width="210" height="240" as="geometry" />
        </mxCell>
        <mxCell id="GelBJ9jALFVcU31ypJkc-18" value="" style="rounded=0;whiteSpace=wrap;html=1;" vertex="1" parent="GelBJ9jALFVcU31ypJkc-1">
          <mxGeometry x="50" y="70" width="190" height="140" as="geometry" />
        </mxCell>
        <mxCell id="GelBJ9jALFVcU31ypJkc-19" value="&lt;i&gt;main stack frame&lt;/i&gt;" style="text;html=1;strokeColor=none;fillColor=none;align=left;verticalAlign=middle;whiteSpace=wrap;rounded=0;" vertex="1" parent="GelBJ9jALFVcU31ypJkc-1">
          <mxGeometry x="50" y="70" width="190" height="20" as="geometry" />
        </mxCell>
        <mxCell id="GelBJ9jALFVcU31ypJkc-20" value="1" style="rounded=0;whiteSpace=wrap;html=1;" vertex="1" parent="GelBJ9jALFVcU31ypJkc-1">
          <mxGeometry x="390" y="120" width="70" height="30" as="geometry" />
        </mxCell>
        <mxCell id="GelBJ9jALFVcU31ypJkc-22" value="" style="group" vertex="1" connectable="0" parent="GelBJ9jALFVcU31ypJkc-1">
          <mxGeometry x="90" y="100" width="110" height="30" as="geometry" />
        </mxCell>
        <mxCell id="GelBJ9jALFVcU31ypJkc-23" value="0x40" style="rounded=0;whiteSpace=wrap;html=1;" vertex="1" parent="GelBJ9jALFVcU31ypJkc-22">
          <mxGeometry x="40" width="70" height="30" as="geometry" />
        </mxCell>
        <mxCell id="GelBJ9jALFVcU31ypJkc-24" value="data" style="text;html=1;strokeColor=none;fillColor=none;align=center;verticalAlign=middle;whiteSpace=wrap;rounded=0;" vertex="1" parent="GelBJ9jALFVcU31ypJkc-22">
          <mxGeometry x="-20" y="5" width="60" height="20" as="geometry" />
        </mxCell>
        <mxCell id="i0yBgwZRjpb8ZS7tdkGX-0" value="0x40" style="text;html=1;align=center;verticalAlign=middle;whiteSpace=wrap;rounded=0;fontColor=#000000;" vertex="1" parent="GelBJ9jALFVcU31ypJkc-1">
          <mxGeometry x="395" y="100" width="60" height="30" as="geometry" />
        </mxCell>
        <mxCell id="NoOxGaxgM8k8eyco9pzE-0" value="" style="curved=1;endArrow=classic;html=1;rounded=0;exitX=1;exitY=0.5;exitDx=0;exitDy=0;entryX=0;entryY=0;entryDx=0;entryDy=0;" edge="1" parent="GelBJ9jALFVcU31ypJkc-1" source="GelBJ9jALFVcU31ypJkc-23" target="GelBJ9jALFVcU31ypJkc-20">
          <mxGeometry width="50" height="50" relative="1" as="geometry">
            <mxPoint x="210" y="231" as="sourcePoint" />
            <mxPoint x="560" y="195" as="targetPoint" />
            <Array as="points">
              <mxPoint x="260" y="80" />
              <mxPoint x="300" y="80" />
            </Array>
          </mxGeometry>
        </mxCell>
        <mxCell id="NoOxGaxgM8k8eyco9pzE-1" value="2" style="rounded=0;whiteSpace=wrap;html=1;" vertex="1" parent="GelBJ9jALFVcU31ypJkc-1">
          <mxGeometry x="390" y="150" width="70" height="30" as="geometry" />
        </mxCell>
        <mxCell id="NoOxGaxgM8k8eyco9pzE-12" value="Heap" style="rounded=0;whiteSpace=wrap;html=1;dashed=1;verticalAlign=top;fontStyle=1;fillColor=#d5e8d4;strokeColor=#82b366;fontColor=#000000;" vertex="1" parent="GelBJ9jALFVcU31ypJkc-1">
          <mxGeometry x="270" y="320" width="480" height="240" as="geometry" />
        </mxCell>
        <mxCell id="NoOxGaxgM8k8eyco9pzE-13" value="Stack" style="rounded=0;whiteSpace=wrap;html=1;dashed=1;verticalAlign=top;fontStyle=1;fillColor=#fff2cc;strokeColor=#d6b656;fontColor=#000000;" vertex="1" parent="GelBJ9jALFVcU31ypJkc-1">
          <mxGeometry x="40" y="320" width="210" height="240" as="geometry" />
        </mxCell>
        <mxCell id="NoOxGaxgM8k8eyco9pzE-14" value="" style="rounded=0;whiteSpace=wrap;html=1;" vertex="1" parent="GelBJ9jALFVcU31ypJkc-1">
          <mxGeometry x="50" y="350" width="190" height="140" as="geometry" />
        </mxCell>
        <mxCell id="NoOxGaxgM8k8eyco9pzE-15" value="&lt;i&gt;main stack frame&lt;/i&gt;" style="text;html=1;strokeColor=none;fillColor=none;align=left;verticalAlign=middle;whiteSpace=wrap;rounded=0;" vertex="1" parent="GelBJ9jALFVcU31ypJkc-1">
          <mxGeometry x="50" y="350" width="190" height="20" as="geometry" />
        </mxCell>
        <mxCell id="NoOxGaxgM8k8eyco9pzE-16" value="1" style="rounded=0;whiteSpace=wrap;html=1;" vertex="1" parent="GelBJ9jALFVcU31ypJkc-1">
          <mxGeometry x="390" y="400" width="70" height="30" as="geometry" />
        </mxCell>
        <mxCell id="NoOxGaxgM8k8eyco9pzE-17" value="" style="group" vertex="1" connectable="0" parent="GelBJ9jALFVcU31ypJkc-1">
          <mxGeometry x="90" y="380" width="110" height="30" as="geometry" />
        </mxCell>
        <mxCell id="NoOxGaxgM8k8eyco9pzE-18" value="0x40" style="rounded=0;whiteSpace=wrap;html=1;" vertex="1" parent="NoOxGaxgM8k8eyco9pzE-17">
          <mxGeometry x="40" width="70" height="30" as="geometry" />
        </mxCell>
        <mxCell id="NoOxGaxgM8k8eyco9pzE-19" value="data" style="text;html=1;strokeColor=none;fillColor=none;align=center;verticalAlign=middle;whiteSpace=wrap;rounded=0;" vertex="1" parent="NoOxGaxgM8k8eyco9pzE-17">
          <mxGeometry x="-20" y="5" width="60" height="20" as="geometry" />
        </mxCell>
        <mxCell id="NoOxGaxgM8k8eyco9pzE-20" value="0x40" style="text;html=1;align=center;verticalAlign=middle;whiteSpace=wrap;rounded=0;fontColor=#000000;" vertex="1" parent="GelBJ9jALFVcU31ypJkc-1">
          <mxGeometry x="395" y="380" width="60" height="30" as="geometry" />
        </mxCell>
        <mxCell id="NoOxGaxgM8k8eyco9pzE-21" value="" style="curved=1;endArrow=classic;html=1;rounded=0;exitX=1;exitY=0.5;exitDx=0;exitDy=0;entryX=0;entryY=0;entryDx=0;entryDy=0;" edge="1" parent="GelBJ9jALFVcU31ypJkc-1" source="NoOxGaxgM8k8eyco9pzE-18" target="NoOxGaxgM8k8eyco9pzE-16">
          <mxGeometry width="50" height="50" relative="1" as="geometry">
            <mxPoint x="210" y="511" as="sourcePoint" />
            <mxPoint x="560" y="475" as="targetPoint" />
            <Array as="points">
              <mxPoint x="260" y="360" />
              <mxPoint x="300" y="360" />
            </Array>
          </mxGeometry>
        </mxCell>
        <mxCell id="NoOxGaxgM8k8eyco9pzE-22" value="2" style="rounded=0;whiteSpace=wrap;html=1;" vertex="1" parent="GelBJ9jALFVcU31ypJkc-1">
          <mxGeometry x="390" y="430" width="70" height="30" as="geometry" />
        </mxCell>
        <mxCell id="NoOxGaxgM8k8eyco9pzE-23" value="3" style="rounded=0;whiteSpace=wrap;html=1;" vertex="1" parent="GelBJ9jALFVcU31ypJkc-1">
          <mxGeometry x="390" y="460" width="70" height="30" as="geometry" />
        </mxCell>
        <mxCell id="NoOxGaxgM8k8eyco9pzE-24" value="1" style="rounded=0;whiteSpace=wrap;html=1;" vertex="1" parent="GelBJ9jALFVcU31ypJkc-1">
          <mxGeometry x="540" y="430" width="70" height="30" as="geometry" />
        </mxCell>
        <mxCell id="NoOxGaxgM8k8eyco9pzE-25" value="0x80" style="text;html=1;align=center;verticalAlign=middle;whiteSpace=wrap;rounded=0;fontColor=#000000;" vertex="1" parent="GelBJ9jALFVcU31ypJkc-1">
          <mxGeometry x="545" y="410" width="60" height="30" as="geometry" />
        </mxCell>
        <mxCell id="NoOxGaxgM8k8eyco9pzE-26" value="2" style="rounded=0;whiteSpace=wrap;html=1;" vertex="1" parent="GelBJ9jALFVcU31ypJkc-1">
          <mxGeometry x="540" y="460" width="70" height="30" as="geometry" />
        </mxCell>
        <mxCell id="NoOxGaxgM8k8eyco9pzE-27" value="3" style="rounded=0;whiteSpace=wrap;html=1;" vertex="1" parent="GelBJ9jALFVcU31ypJkc-1">
          <mxGeometry x="540" y="490" width="70" height="30" as="geometry" />
        </mxCell>
        <mxCell id="NoOxGaxgM8k8eyco9pzE-28" value="" style="group" vertex="1" connectable="0" parent="GelBJ9jALFVcU31ypJkc-1">
          <mxGeometry x="90" y="410" width="110" height="30" as="geometry" />
        </mxCell>
        <mxCell id="NoOxGaxgM8k8eyco9pzE-29" value="0x80" style="rounded=0;whiteSpace=wrap;html=1;" vertex="1" parent="NoOxGaxgM8k8eyco9pzE-28">
          <mxGeometry x="40" width="70" height="30" as="geometry" />
        </mxCell>
        <mxCell id="NoOxGaxgM8k8eyco9pzE-30" value="other" style="text;html=1;strokeColor=none;fillColor=none;align=center;verticalAlign=middle;whiteSpace=wrap;rounded=0;" vertex="1" parent="NoOxGaxgM8k8eyco9pzE-28">
          <mxGeometry x="-20" y="5" width="60" height="20" as="geometry" />
        </mxCell>
        <mxCell id="NoOxGaxgM8k8eyco9pzE-31" value="" style="curved=1;endArrow=classic;html=1;rounded=0;entryX=0;entryY=0;entryDx=0;entryDy=0;exitX=1;exitY=0.5;exitDx=0;exitDy=0;" edge="1" parent="GelBJ9jALFVcU31ypJkc-1" source="NoOxGaxgM8k8eyco9pzE-29" target="NoOxGaxgM8k8eyco9pzE-24">
          <mxGeometry width="50" height="50" relative="1" as="geometry">
            <mxPoint x="210" y="405" as="sourcePoint" />
            <mxPoint x="400" y="410" as="targetPoint" />
            <Array as="points">
              <mxPoint x="260" y="433" />
              <mxPoint x="420" y="570" />
            </Array>
          </mxGeometry>
        </mxCell>
        <mxCell id="NoOxGaxgM8k8eyco9pzE-32" value="Heap" style="rounded=0;whiteSpace=wrap;html=1;dashed=1;verticalAlign=top;fontStyle=1;fillColor=#d5e8d4;strokeColor=#82b366;fontColor=#000000;" vertex="1" parent="GelBJ9jALFVcU31ypJkc-1">
          <mxGeometry x="270" y="600" width="480" height="240" as="geometry" />
        </mxCell>
        <mxCell id="NoOxGaxgM8k8eyco9pzE-33" value="Stack" style="rounded=0;whiteSpace=wrap;html=1;dashed=1;verticalAlign=top;fontStyle=1;fillColor=#fff2cc;strokeColor=#d6b656;fontColor=#000000;" vertex="1" parent="GelBJ9jALFVcU31ypJkc-1">
          <mxGeometry x="40" y="600" width="210" height="240" as="geometry" />
        </mxCell>
        <mxCell id="NoOxGaxgM8k8eyco9pzE-34" value="" style="rounded=0;whiteSpace=wrap;html=1;" vertex="1" parent="GelBJ9jALFVcU31ypJkc-1">
          <mxGeometry x="50" y="630" width="190" height="140" as="geometry" />
        </mxCell>
        <mxCell id="NoOxGaxgM8k8eyco9pzE-35" value="&lt;i&gt;main stack frame&lt;/i&gt;" style="text;html=1;strokeColor=none;fillColor=none;align=left;verticalAlign=middle;whiteSpace=wrap;rounded=0;" vertex="1" parent="GelBJ9jALFVcU31ypJkc-1">
          <mxGeometry x="50" y="630" width="190" height="20" as="geometry" />
        </mxCell>
        <mxCell id="NoOxGaxgM8k8eyco9pzE-36" value="1" style="rounded=0;whiteSpace=wrap;html=1;" vertex="1" parent="GelBJ9jALFVcU31ypJkc-1">
          <mxGeometry x="390" y="680" width="70" height="30" as="geometry" />
        </mxCell>
        <mxCell id="NoOxGaxgM8k8eyco9pzE-37" value="" style="group" vertex="1" connectable="0" parent="GelBJ9jALFVcU31ypJkc-1">
          <mxGeometry x="90" y="660" width="110" height="30" as="geometry" />
        </mxCell>
        <mxCell id="NoOxGaxgM8k8eyco9pzE-38" value="0x40" style="rounded=0;whiteSpace=wrap;html=1;" vertex="1" parent="NoOxGaxgM8k8eyco9pzE-37">
          <mxGeometry x="40" width="70" height="30" as="geometry" />
        </mxCell>
        <mxCell id="NoOxGaxgM8k8eyco9pzE-39" value="data" style="text;html=1;strokeColor=none;fillColor=none;align=center;verticalAlign=middle;whiteSpace=wrap;rounded=0;" vertex="1" parent="NoOxGaxgM8k8eyco9pzE-37">
          <mxGeometry x="-20" y="5" width="60" height="20" as="geometry" />
        </mxCell>
        <mxCell id="NoOxGaxgM8k8eyco9pzE-40" value="0x40" style="text;html=1;align=center;verticalAlign=middle;whiteSpace=wrap;rounded=0;fontColor=#000000;" vertex="1" parent="GelBJ9jALFVcU31ypJkc-1">
          <mxGeometry x="395" y="660" width="60" height="30" as="geometry" />
        </mxCell>
        <mxCell id="NoOxGaxgM8k8eyco9pzE-41" value="" style="curved=1;endArrow=classic;html=1;rounded=0;exitX=1;exitY=0.5;exitDx=0;exitDy=0;entryX=0;entryY=0;entryDx=0;entryDy=0;" edge="1" parent="GelBJ9jALFVcU31ypJkc-1" source="NoOxGaxgM8k8eyco9pzE-38" target="NoOxGaxgM8k8eyco9pzE-36">
          <mxGeometry width="50" height="50" relative="1" as="geometry">
            <mxPoint x="210" y="791" as="sourcePoint" />
            <mxPoint x="560" y="755" as="targetPoint" />
            <Array as="points">
              <mxPoint x="260" y="640" />
              <mxPoint x="300" y="640" />
            </Array>
          </mxGeometry>
        </mxCell>
        <mxCell id="NoOxGaxgM8k8eyco9pzE-42" value="2" style="rounded=0;whiteSpace=wrap;html=1;" vertex="1" parent="GelBJ9jALFVcU31ypJkc-1">
          <mxGeometry x="390" y="710" width="70" height="30" as="geometry" />
        </mxCell>
        <mxCell id="NoOxGaxgM8k8eyco9pzE-43" value="3" style="rounded=0;whiteSpace=wrap;html=1;" vertex="1" parent="GelBJ9jALFVcU31ypJkc-1">
          <mxGeometry x="390" y="740" width="70" height="30" as="geometry" />
        </mxCell>
        <mxCell id="NoOxGaxgM8k8eyco9pzE-51" value="" style="curved=1;endArrow=classic;html=1;rounded=0;entryX=0;entryY=0;entryDx=0;entryDy=0;exitX=1;exitY=0.5;exitDx=0;exitDy=0;" edge="1" parent="GelBJ9jALFVcU31ypJkc-1" target="NoOxGaxgM8k8eyco9pzE-36">
          <mxGeometry width="50" height="50" relative="1" as="geometry">
            <mxPoint x="200" y="705" as="sourcePoint" />
            <mxPoint x="400" y="690" as="targetPoint" />
            <Array as="points">
              <mxPoint x="260" y="713" />
              <mxPoint x="330" y="740" />
            </Array>
          </mxGeometry>
        </mxCell>
        <mxCell id="NoOxGaxgM8k8eyco9pzE-52" value="" style="group" vertex="1" connectable="0" parent="GelBJ9jALFVcU31ypJkc-1">
          <mxGeometry x="90" y="690" width="110" height="30" as="geometry" />
        </mxCell>
        <mxCell id="NoOxGaxgM8k8eyco9pzE-53" value="0x40" style="rounded=0;whiteSpace=wrap;html=1;" vertex="1" parent="NoOxGaxgM8k8eyco9pzE-52">
          <mxGeometry x="40" width="70" height="30" as="geometry" />
        </mxCell>
        <mxCell id="NoOxGaxgM8k8eyco9pzE-54" value="copy" style="text;html=1;strokeColor=none;fillColor=none;align=center;verticalAlign=middle;whiteSpace=wrap;rounded=0;" vertex="1" parent="NoOxGaxgM8k8eyco9pzE-52">
          <mxGeometry x="-20" y="5" width="60" height="20" as="geometry" />
        </mxCell>
        <mxCell id="mcmHuvT4yOeteRQA9QzA-0" value="3" style="rounded=0;whiteSpace=wrap;html=1;" vertex="1" parent="GelBJ9jALFVcU31ypJkc-1">
          <mxGeometry x="390" y="180" width="70" height="30" as="geometry" />
        </mxCell>
        <mxCell id="8GMJZEoHTMRUmJ_RaKD8-0" value="Heap" style="rounded=0;whiteSpace=wrap;html=1;dashed=1;verticalAlign=top;fontStyle=1;fillColor=#d5e8d4;strokeColor=#82b366;fontColor=#000000;" vertex="1" parent="GelBJ9jALFVcU31ypJkc-1">
          <mxGeometry x="270" y="-240" width="480" height="240" as="geometry" />
        </mxCell>
        <mxCell id="8GMJZEoHTMRUmJ_RaKD8-1" value="Stack" style="rounded=0;whiteSpace=wrap;html=1;dashed=1;verticalAlign=top;fontStyle=1;fillColor=#fff2cc;strokeColor=#d6b656;fontColor=#000000;" vertex="1" parent="GelBJ9jALFVcU31ypJkc-1">
          <mxGeometry x="40" y="-240" width="210" height="240" as="geometry" />
        </mxCell>
        <mxCell id="8GMJZEoHTMRUmJ_RaKD8-2" value="" style="rounded=0;whiteSpace=wrap;html=1;" vertex="1" parent="GelBJ9jALFVcU31ypJkc-1">
          <mxGeometry x="50" y="-210" width="190" height="140" as="geometry" />
        </mxCell>
        <mxCell id="8GMJZEoHTMRUmJ_RaKD8-3" value="&lt;i&gt;main stack frame&lt;/i&gt;" style="text;html=1;strokeColor=none;fillColor=none;align=left;verticalAlign=middle;whiteSpace=wrap;rounded=0;" vertex="1" parent="GelBJ9jALFVcU31ypJkc-1">
          <mxGeometry x="50" y="-210" width="190" height="20" as="geometry" />
        </mxCell>
        <mxCell id="8GMJZEoHTMRUmJ_RaKD8-4" value="-1234" style="rounded=0;whiteSpace=wrap;html=1;" vertex="1" parent="GelBJ9jALFVcU31ypJkc-1">
          <mxGeometry x="390" y="-160" width="70" height="30" as="geometry" />
        </mxCell>
        <mxCell id="8GMJZEoHTMRUmJ_RaKD8-5" value="" style="group" vertex="1" connectable="0" parent="GelBJ9jALFVcU31ypJkc-1">
          <mxGeometry x="90" y="-180" width="110" height="30" as="geometry" />
        </mxCell>
        <mxCell id="8GMJZEoHTMRUmJ_RaKD8-6" value="0x40" style="rounded=0;whiteSpace=wrap;html=1;" vertex="1" parent="8GMJZEoHTMRUmJ_RaKD8-5">
          <mxGeometry x="40" width="70" height="30" as="geometry" />
        </mxCell>
        <mxCell id="8GMJZEoHTMRUmJ_RaKD8-7" value="data" style="text;html=1;strokeColor=none;fillColor=none;align=center;verticalAlign=middle;whiteSpace=wrap;rounded=0;" vertex="1" parent="8GMJZEoHTMRUmJ_RaKD8-5">
          <mxGeometry x="-20" y="5" width="60" height="20" as="geometry" />
        </mxCell>
        <mxCell id="8GMJZEoHTMRUmJ_RaKD8-8" value="0x40" style="text;html=1;align=center;verticalAlign=middle;whiteSpace=wrap;rounded=0;fontColor=#000000;" vertex="1" parent="GelBJ9jALFVcU31ypJkc-1">
          <mxGeometry x="395" y="-180" width="60" height="30" as="geometry" />
        </mxCell>
        <mxCell id="8GMJZEoHTMRUmJ_RaKD8-9" value="" style="curved=1;endArrow=classic;html=1;rounded=0;exitX=1;exitY=0.5;exitDx=0;exitDy=0;entryX=0;entryY=0;entryDx=0;entryDy=0;" edge="1" parent="GelBJ9jALFVcU31ypJkc-1" source="8GMJZEoHTMRUmJ_RaKD8-6" target="8GMJZEoHTMRUmJ_RaKD8-4">
          <mxGeometry width="50" height="50" relative="1" as="geometry">
            <mxPoint x="210" y="-49" as="sourcePoint" />
            <mxPoint x="560" y="-85" as="targetPoint" />
            <Array as="points">
              <mxPoint x="260" y="-200" />
              <mxPoint x="300" y="-200" />
            </Array>
          </mxGeometry>
        </mxCell>
        <mxCell id="8GMJZEoHTMRUmJ_RaKD8-10" value="35234" style="rounded=0;whiteSpace=wrap;html=1;" vertex="1" parent="GelBJ9jALFVcU31ypJkc-1">
          <mxGeometry x="390" y="-130" width="70" height="30" as="geometry" />
        </mxCell>
        <mxCell id="8GMJZEoHTMRUmJ_RaKD8-11" value="234" style="rounded=0;whiteSpace=wrap;html=1;" vertex="1" parent="GelBJ9jALFVcU31ypJkc-1">
          <mxGeometry x="390" y="-100" width="70" height="30" as="geometry" />
        </mxCell>
        <mxCell id="8GMJZEoHTMRUmJ_RaKD8-12" value="-635234" style="rounded=0;whiteSpace=wrap;html=1;" vertex="1" parent="GelBJ9jALFVcU31ypJkc-1">
          <mxGeometry x="390" y="-70" width="70" height="30" as="geometry" />
        </mxCell>
      </root>
    </mxGraphModel>
  </diagram>
  <diagram name="playerlist" id="Sql9p_cdP6ooIKpm9gqg">
    <mxGraphModel dx="1303" dy="1090" grid="1" gridSize="10" guides="1" tooltips="1" connect="1" arrows="1" fold="1" page="1" pageScale="1" pageWidth="850" pageHeight="1100" math="0" shadow="0">
      <root>
        <mxCell id="9NSdRiypsNwaKBGaRwZJ-0" />
        <mxCell id="9NSdRiypsNwaKBGaRwZJ-1" parent="9NSdRiypsNwaKBGaRwZJ-0" />
        <mxCell id="9NSdRiypsNwaKBGaRwZJ-2" value="Heap" style="rounded=0;whiteSpace=wrap;html=1;dashed=1;verticalAlign=top;fontStyle=1;fillColor=#d5e8d4;strokeColor=#82b366;fontColor=#000000;" vertex="1" parent="9NSdRiypsNwaKBGaRwZJ-1">
          <mxGeometry x="380" y="40" width="370" height="240" as="geometry" />
        </mxCell>
        <mxCell id="9NSdRiypsNwaKBGaRwZJ-3" value="Stack" style="rounded=0;whiteSpace=wrap;html=1;dashed=1;verticalAlign=top;fontStyle=1;fillColor=#fff2cc;strokeColor=#d6b656;fontColor=#000000;" vertex="1" parent="9NSdRiypsNwaKBGaRwZJ-1">
          <mxGeometry x="40" y="40" width="280" height="240" as="geometry" />
        </mxCell>
        <mxCell id="9NSdRiypsNwaKBGaRwZJ-4" value="" style="rounded=0;whiteSpace=wrap;html=1;" vertex="1" parent="9NSdRiypsNwaKBGaRwZJ-1">
          <mxGeometry x="50" y="70" width="250" height="140" as="geometry" />
        </mxCell>
        <mxCell id="9NSdRiypsNwaKBGaRwZJ-5" value="&lt;i&gt;main stack frame&lt;/i&gt;" style="text;html=1;strokeColor=none;fillColor=none;align=left;verticalAlign=middle;whiteSpace=wrap;rounded=0;" vertex="1" parent="9NSdRiypsNwaKBGaRwZJ-1">
          <mxGeometry x="50" y="70" width="190" height="20" as="geometry" />
        </mxCell>
        <mxCell id="9NSdRiypsNwaKBGaRwZJ-6" value="Alice" style="rounded=0;whiteSpace=wrap;html=1;" vertex="1" parent="9NSdRiypsNwaKBGaRwZJ-1">
          <mxGeometry x="480" y="110" width="70" height="30" as="geometry" />
        </mxCell>
        <mxCell id="9NSdRiypsNwaKBGaRwZJ-10" value="0x60" style="text;html=1;align=center;verticalAlign=middle;whiteSpace=wrap;rounded=0;fontColor=#000000;" vertex="1" parent="9NSdRiypsNwaKBGaRwZJ-1">
          <mxGeometry x="485" y="90" width="60" height="30" as="geometry" />
        </mxCell>
        <mxCell id="9NSdRiypsNwaKBGaRwZJ-12" value="Bob" style="rounded=0;whiteSpace=wrap;html=1;" vertex="1" parent="9NSdRiypsNwaKBGaRwZJ-1">
          <mxGeometry x="480" y="140" width="70" height="30" as="geometry" />
        </mxCell>
        <mxCell id="10_y8Z9jDT5GnOhwLIq8-1" value="pList" style="text;html=1;strokeColor=none;fillColor=none;align=center;verticalAlign=middle;whiteSpace=wrap;rounded=0;" vertex="1" parent="9NSdRiypsNwaKBGaRwZJ-1">
          <mxGeometry x="60" y="100" width="60" height="20" as="geometry" />
        </mxCell>
        <mxCell id="10_y8Z9jDT5GnOhwLIq8-9" value="Carlos" style="rounded=0;whiteSpace=wrap;html=1;" vertex="1" parent="9NSdRiypsNwaKBGaRwZJ-1">
          <mxGeometry x="480" y="170" width="70" height="30" as="geometry" />
        </mxCell>
        <mxCell id="10_y8Z9jDT5GnOhwLIq8-13" value="" style="group" vertex="1" connectable="0" parent="9NSdRiypsNwaKBGaRwZJ-1">
          <mxGeometry x="120" y="100" width="150" height="90" as="geometry" />
        </mxCell>
        <mxCell id="10_y8Z9jDT5GnOhwLIq8-0" value="" style="rounded=0;whiteSpace=wrap;html=1;" vertex="1" parent="10_y8Z9jDT5GnOhwLIq8-13">
          <mxGeometry width="150" height="90" as="geometry" />
        </mxCell>
        <mxCell id="10_y8Z9jDT5GnOhwLIq8-2" value="" style="group" vertex="1" connectable="0" parent="10_y8Z9jDT5GnOhwLIq8-13">
          <mxGeometry x="30" y="10" width="110" height="30" as="geometry" />
        </mxCell>
        <mxCell id="10_y8Z9jDT5GnOhwLIq8-3" value="3" style="rounded=0;whiteSpace=wrap;html=1;" vertex="1" parent="10_y8Z9jDT5GnOhwLIq8-2">
          <mxGeometry x="40" width="70" height="30" as="geometry" />
        </mxCell>
        <mxCell id="10_y8Z9jDT5GnOhwLIq8-4" value="m_size" style="text;html=1;strokeColor=none;fillColor=none;align=center;verticalAlign=middle;whiteSpace=wrap;rounded=0;" vertex="1" parent="10_y8Z9jDT5GnOhwLIq8-2">
          <mxGeometry x="-20" y="5" width="60" height="20" as="geometry" />
        </mxCell>
        <mxCell id="10_y8Z9jDT5GnOhwLIq8-6" value="" style="group" vertex="1" connectable="0" parent="10_y8Z9jDT5GnOhwLIq8-13">
          <mxGeometry x="30" y="40" width="110" height="30" as="geometry" />
        </mxCell>
        <mxCell id="10_y8Z9jDT5GnOhwLIq8-7" value="0x60" style="rounded=0;whiteSpace=wrap;html=1;" vertex="1" parent="10_y8Z9jDT5GnOhwLIq8-6">
          <mxGeometry x="40" width="70" height="30" as="geometry" />
        </mxCell>
        <mxCell id="10_y8Z9jDT5GnOhwLIq8-8" value="m_players" style="text;html=1;strokeColor=none;fillColor=none;align=center;verticalAlign=middle;whiteSpace=wrap;rounded=0;" vertex="1" parent="10_y8Z9jDT5GnOhwLIq8-6">
          <mxGeometry x="-20" y="5" width="60" height="20" as="geometry" />
        </mxCell>
        <mxCell id="10_y8Z9jDT5GnOhwLIq8-14" value="" style="curved=1;endArrow=classic;html=1;rounded=0;exitX=1;exitY=0.5;exitDx=0;exitDy=0;entryX=0;entryY=0;entryDx=0;entryDy=0;" edge="1" parent="9NSdRiypsNwaKBGaRwZJ-1">
          <mxGeometry width="50" height="50" relative="1" as="geometry">
            <mxPoint x="260" y="155" as="sourcePoint" />
            <mxPoint x="480" y="110" as="targetPoint" />
            <Array as="points">
              <mxPoint x="350" y="160" />
              <mxPoint x="420" y="120" />
            </Array>
          </mxGeometry>
        </mxCell>
      </root>
    </mxGraphModel>
  </diagram>
  <diagram name="copys" id="qbqdOFqAMh_QG0e1LQSc">
    <mxGraphModel dx="1303" dy="1090" grid="1" gridSize="10" guides="1" tooltips="1" connect="1" arrows="1" fold="1" page="1" pageScale="1" pageWidth="850" pageHeight="1100" math="0" shadow="0">
      <root>
        <mxCell id="9JPjnLQtc1eGN0GyWhkx-0" />
        <mxCell id="9JPjnLQtc1eGN0GyWhkx-1" parent="9JPjnLQtc1eGN0GyWhkx-0" />
        <mxCell id="9JPjnLQtc1eGN0GyWhkx-2" value="Heap" style="rounded=0;whiteSpace=wrap;html=1;dashed=1;verticalAlign=top;fontStyle=1;fillColor=#d5e8d4;strokeColor=#82b366;fontColor=#000000;" vertex="1" parent="9JPjnLQtc1eGN0GyWhkx-1">
          <mxGeometry x="380" y="40" width="370" height="280" as="geometry" />
        </mxCell>
        <mxCell id="9JPjnLQtc1eGN0GyWhkx-3" value="Stack" style="rounded=0;whiteSpace=wrap;html=1;dashed=1;verticalAlign=top;fontStyle=1;fillColor=#fff2cc;strokeColor=#d6b656;fontColor=#000000;" vertex="1" parent="9JPjnLQtc1eGN0GyWhkx-1">
          <mxGeometry x="40" y="40" width="280" height="280" as="geometry" />
        </mxCell>
        <mxCell id="9JPjnLQtc1eGN0GyWhkx-4" value="" style="rounded=0;whiteSpace=wrap;html=1;" vertex="1" parent="9JPjnLQtc1eGN0GyWhkx-1">
          <mxGeometry x="50" y="70" width="250" height="240" as="geometry" />
        </mxCell>
        <mxCell id="9JPjnLQtc1eGN0GyWhkx-5" value="&lt;i&gt;main stack frame&lt;/i&gt;" style="text;html=1;strokeColor=none;fillColor=none;align=left;verticalAlign=middle;whiteSpace=wrap;rounded=0;" vertex="1" parent="9JPjnLQtc1eGN0GyWhkx-1">
          <mxGeometry x="50" y="70" width="190" height="20" as="geometry" />
        </mxCell>
        <mxCell id="9JPjnLQtc1eGN0GyWhkx-6" value="Alice" style="rounded=0;whiteSpace=wrap;html=1;" vertex="1" parent="9JPjnLQtc1eGN0GyWhkx-1">
          <mxGeometry x="480" y="110" width="70" height="30" as="geometry" />
        </mxCell>
        <mxCell id="9JPjnLQtc1eGN0GyWhkx-7" value="0x60" style="text;html=1;align=center;verticalAlign=middle;whiteSpace=wrap;rounded=0;fontColor=#000000;" vertex="1" parent="9JPjnLQtc1eGN0GyWhkx-1">
          <mxGeometry x="485" y="90" width="60" height="30" as="geometry" />
        </mxCell>
        <mxCell id="9JPjnLQtc1eGN0GyWhkx-8" value="Bob" style="rounded=0;whiteSpace=wrap;html=1;" vertex="1" parent="9JPjnLQtc1eGN0GyWhkx-1">
          <mxGeometry x="480" y="140" width="70" height="30" as="geometry" />
        </mxCell>
        <mxCell id="9JPjnLQtc1eGN0GyWhkx-9" value="original" style="text;html=1;strokeColor=none;fillColor=none;align=center;verticalAlign=middle;whiteSpace=wrap;rounded=0;" vertex="1" parent="9JPjnLQtc1eGN0GyWhkx-1">
          <mxGeometry x="60" y="100" width="60" height="20" as="geometry" />
        </mxCell>
        <mxCell id="9JPjnLQtc1eGN0GyWhkx-10" value="Carlos" style="rounded=0;whiteSpace=wrap;html=1;" vertex="1" parent="9JPjnLQtc1eGN0GyWhkx-1">
          <mxGeometry x="480" y="170" width="70" height="30" as="geometry" />
        </mxCell>
        <mxCell id="9JPjnLQtc1eGN0GyWhkx-11" value="" style="group" vertex="1" connectable="0" parent="9JPjnLQtc1eGN0GyWhkx-1">
          <mxGeometry x="120" y="100" width="150" height="90" as="geometry" />
        </mxCell>
        <mxCell id="9JPjnLQtc1eGN0GyWhkx-12" value="" style="rounded=0;whiteSpace=wrap;html=1;" vertex="1" parent="9JPjnLQtc1eGN0GyWhkx-11">
          <mxGeometry width="150" height="90" as="geometry" />
        </mxCell>
        <mxCell id="9JPjnLQtc1eGN0GyWhkx-13" value="" style="group" vertex="1" connectable="0" parent="9JPjnLQtc1eGN0GyWhkx-11">
          <mxGeometry x="30" y="10" width="110" height="30" as="geometry" />
        </mxCell>
        <mxCell id="9JPjnLQtc1eGN0GyWhkx-14" value="3" style="rounded=0;whiteSpace=wrap;html=1;" vertex="1" parent="9JPjnLQtc1eGN0GyWhkx-13">
          <mxGeometry x="40" width="70" height="30" as="geometry" />
        </mxCell>
        <mxCell id="9JPjnLQtc1eGN0GyWhkx-15" value="m_size" style="text;html=1;strokeColor=none;fillColor=none;align=center;verticalAlign=middle;whiteSpace=wrap;rounded=0;" vertex="1" parent="9JPjnLQtc1eGN0GyWhkx-13">
          <mxGeometry x="-20" y="5" width="60" height="20" as="geometry" />
        </mxCell>
        <mxCell id="9JPjnLQtc1eGN0GyWhkx-16" value="" style="group" vertex="1" connectable="0" parent="9JPjnLQtc1eGN0GyWhkx-11">
          <mxGeometry x="30" y="40" width="110" height="30" as="geometry" />
        </mxCell>
        <mxCell id="9JPjnLQtc1eGN0GyWhkx-17" value="0x60" style="rounded=0;whiteSpace=wrap;html=1;" vertex="1" parent="9JPjnLQtc1eGN0GyWhkx-16">
          <mxGeometry x="40" width="70" height="30" as="geometry" />
        </mxCell>
        <mxCell id="9JPjnLQtc1eGN0GyWhkx-18" value="m_players" style="text;html=1;strokeColor=none;fillColor=none;align=center;verticalAlign=middle;whiteSpace=wrap;rounded=0;" vertex="1" parent="9JPjnLQtc1eGN0GyWhkx-16">
          <mxGeometry x="-20" y="5" width="60" height="20" as="geometry" />
        </mxCell>
        <mxCell id="9JPjnLQtc1eGN0GyWhkx-19" value="" style="curved=1;endArrow=classic;html=1;rounded=0;exitX=1;exitY=0.5;exitDx=0;exitDy=0;entryX=0;entryY=0;entryDx=0;entryDy=0;" edge="1" parent="9JPjnLQtc1eGN0GyWhkx-1">
          <mxGeometry width="50" height="50" relative="1" as="geometry">
            <mxPoint x="260" y="155" as="sourcePoint" />
            <mxPoint x="480" y="110" as="targetPoint" />
            <Array as="points">
              <mxPoint x="350" y="160" />
              <mxPoint x="420" y="120" />
            </Array>
          </mxGeometry>
        </mxCell>
        <mxCell id="ByYCaUUhs_mJVECuXwtD-18" value="copy" style="text;html=1;strokeColor=none;fillColor=none;align=center;verticalAlign=middle;whiteSpace=wrap;rounded=0;" vertex="1" parent="9JPjnLQtc1eGN0GyWhkx-1">
          <mxGeometry x="60" y="190" width="60" height="20" as="geometry" />
        </mxCell>
        <mxCell id="ByYCaUUhs_mJVECuXwtD-19" value="" style="group" vertex="1" connectable="0" parent="9JPjnLQtc1eGN0GyWhkx-1">
          <mxGeometry x="120" y="190" width="150" height="90" as="geometry" />
        </mxCell>
        <mxCell id="ByYCaUUhs_mJVECuXwtD-20" value="" style="rounded=0;whiteSpace=wrap;html=1;" vertex="1" parent="ByYCaUUhs_mJVECuXwtD-19">
          <mxGeometry width="150" height="90" as="geometry" />
        </mxCell>
        <mxCell id="ByYCaUUhs_mJVECuXwtD-21" value="" style="group" vertex="1" connectable="0" parent="ByYCaUUhs_mJVECuXwtD-19">
          <mxGeometry x="30" y="10" width="110" height="30" as="geometry" />
        </mxCell>
        <mxCell id="ByYCaUUhs_mJVECuXwtD-22" value="3" style="rounded=0;whiteSpace=wrap;html=1;" vertex="1" parent="ByYCaUUhs_mJVECuXwtD-21">
          <mxGeometry x="40" width="70" height="30" as="geometry" />
        </mxCell>
        <mxCell id="ByYCaUUhs_mJVECuXwtD-23" value="m_size" style="text;html=1;strokeColor=none;fillColor=none;align=center;verticalAlign=middle;whiteSpace=wrap;rounded=0;" vertex="1" parent="ByYCaUUhs_mJVECuXwtD-21">
          <mxGeometry x="-20" y="5" width="60" height="20" as="geometry" />
        </mxCell>
        <mxCell id="ByYCaUUhs_mJVECuXwtD-24" value="" style="group" vertex="1" connectable="0" parent="ByYCaUUhs_mJVECuXwtD-19">
          <mxGeometry x="30" y="40" width="110" height="30" as="geometry" />
        </mxCell>
        <mxCell id="ByYCaUUhs_mJVECuXwtD-25" value="0x60" style="rounded=0;whiteSpace=wrap;html=1;" vertex="1" parent="ByYCaUUhs_mJVECuXwtD-24">
          <mxGeometry x="40" width="70" height="30" as="geometry" />
        </mxCell>
        <mxCell id="ByYCaUUhs_mJVECuXwtD-26" value="m_players" style="text;html=1;strokeColor=none;fillColor=none;align=center;verticalAlign=middle;whiteSpace=wrap;rounded=0;" vertex="1" parent="ByYCaUUhs_mJVECuXwtD-24">
          <mxGeometry x="-20" y="5" width="60" height="20" as="geometry" />
        </mxCell>
        <mxCell id="ByYCaUUhs_mJVECuXwtD-27" value="" style="curved=1;endArrow=classic;html=1;rounded=0;exitX=1;exitY=0.5;exitDx=0;exitDy=0;entryX=0;entryY=0;entryDx=0;entryDy=0;" edge="1" parent="9JPjnLQtc1eGN0GyWhkx-1" source="ByYCaUUhs_mJVECuXwtD-25" target="9JPjnLQtc1eGN0GyWhkx-6">
          <mxGeometry width="50" height="50" relative="1" as="geometry">
            <mxPoint x="270" y="165" as="sourcePoint" />
            <mxPoint x="490" y="120" as="targetPoint" />
            <Array as="points">
              <mxPoint x="360" y="170" />
              <mxPoint x="430" y="130" />
            </Array>
          </mxGeometry>
        </mxCell>
        <mxCell id="ByYCaUUhs_mJVECuXwtD-28" value="Heap" style="rounded=0;whiteSpace=wrap;html=1;dashed=1;verticalAlign=top;fontStyle=1;fillColor=#d5e8d4;strokeColor=#82b366;fontColor=#000000;" vertex="1" parent="9JPjnLQtc1eGN0GyWhkx-1">
          <mxGeometry x="380" y="360" width="370" height="280" as="geometry" />
        </mxCell>
        <mxCell id="ByYCaUUhs_mJVECuXwtD-29" value="Stack" style="rounded=0;whiteSpace=wrap;html=1;dashed=1;verticalAlign=top;fontStyle=1;fillColor=#fff2cc;strokeColor=#d6b656;fontColor=#000000;" vertex="1" parent="9JPjnLQtc1eGN0GyWhkx-1">
          <mxGeometry x="40" y="360" width="280" height="280" as="geometry" />
        </mxCell>
        <mxCell id="ByYCaUUhs_mJVECuXwtD-30" value="" style="rounded=0;whiteSpace=wrap;html=1;" vertex="1" parent="9JPjnLQtc1eGN0GyWhkx-1">
          <mxGeometry x="50" y="390" width="250" height="240" as="geometry" />
        </mxCell>
        <mxCell id="ByYCaUUhs_mJVECuXwtD-31" value="&lt;i&gt;main stack frame&lt;/i&gt;" style="text;html=1;strokeColor=none;fillColor=none;align=left;verticalAlign=middle;whiteSpace=wrap;rounded=0;" vertex="1" parent="9JPjnLQtc1eGN0GyWhkx-1">
          <mxGeometry x="50" y="390" width="190" height="20" as="geometry" />
        </mxCell>
        <mxCell id="ByYCaUUhs_mJVECuXwtD-32" value="Alice" style="rounded=0;whiteSpace=wrap;html=1;" vertex="1" parent="9JPjnLQtc1eGN0GyWhkx-1">
          <mxGeometry x="480" y="430" width="70" height="30" as="geometry" />
        </mxCell>
        <mxCell id="ByYCaUUhs_mJVECuXwtD-33" value="0x60" style="text;html=1;align=center;verticalAlign=middle;whiteSpace=wrap;rounded=0;fontColor=#000000;" vertex="1" parent="9JPjnLQtc1eGN0GyWhkx-1">
          <mxGeometry x="485" y="410" width="60" height="30" as="geometry" />
        </mxCell>
        <mxCell id="ByYCaUUhs_mJVECuXwtD-34" value="Bob" style="rounded=0;whiteSpace=wrap;html=1;" vertex="1" parent="9JPjnLQtc1eGN0GyWhkx-1">
          <mxGeometry x="480" y="460" width="70" height="30" as="geometry" />
        </mxCell>
        <mxCell id="ByYCaUUhs_mJVECuXwtD-35" value="original" style="text;html=1;strokeColor=none;fillColor=none;align=center;verticalAlign=middle;whiteSpace=wrap;rounded=0;" vertex="1" parent="9JPjnLQtc1eGN0GyWhkx-1">
          <mxGeometry x="60" y="420" width="60" height="20" as="geometry" />
        </mxCell>
        <mxCell id="ByYCaUUhs_mJVECuXwtD-36" value="Carlos" style="rounded=0;whiteSpace=wrap;html=1;" vertex="1" parent="9JPjnLQtc1eGN0GyWhkx-1">
          <mxGeometry x="480" y="490" width="70" height="30" as="geometry" />
        </mxCell>
        <mxCell id="ByYCaUUhs_mJVECuXwtD-37" value="" style="group" vertex="1" connectable="0" parent="9JPjnLQtc1eGN0GyWhkx-1">
          <mxGeometry x="120" y="420" width="150" height="90" as="geometry" />
        </mxCell>
        <mxCell id="ByYCaUUhs_mJVECuXwtD-38" value="" style="rounded=0;whiteSpace=wrap;html=1;" vertex="1" parent="ByYCaUUhs_mJVECuXwtD-37">
          <mxGeometry width="150" height="90" as="geometry" />
        </mxCell>
        <mxCell id="ByYCaUUhs_mJVECuXwtD-39" value="" style="group" vertex="1" connectable="0" parent="ByYCaUUhs_mJVECuXwtD-37">
          <mxGeometry x="30" y="10" width="110" height="30" as="geometry" />
        </mxCell>
        <mxCell id="ByYCaUUhs_mJVECuXwtD-40" value="3" style="rounded=0;whiteSpace=wrap;html=1;" vertex="1" parent="ByYCaUUhs_mJVECuXwtD-39">
          <mxGeometry x="40" width="70" height="30" as="geometry" />
        </mxCell>
        <mxCell id="ByYCaUUhs_mJVECuXwtD-41" value="m_size" style="text;html=1;strokeColor=none;fillColor=none;align=center;verticalAlign=middle;whiteSpace=wrap;rounded=0;" vertex="1" parent="ByYCaUUhs_mJVECuXwtD-39">
          <mxGeometry x="-20" y="5" width="60" height="20" as="geometry" />
        </mxCell>
        <mxCell id="ByYCaUUhs_mJVECuXwtD-42" value="" style="group" vertex="1" connectable="0" parent="ByYCaUUhs_mJVECuXwtD-37">
          <mxGeometry x="30" y="40" width="110" height="30" as="geometry" />
        </mxCell>
        <mxCell id="ByYCaUUhs_mJVECuXwtD-43" value="0x60" style="rounded=0;whiteSpace=wrap;html=1;" vertex="1" parent="ByYCaUUhs_mJVECuXwtD-42">
          <mxGeometry x="40" width="70" height="30" as="geometry" />
        </mxCell>
        <mxCell id="ByYCaUUhs_mJVECuXwtD-44" value="m_players" style="text;html=1;strokeColor=none;fillColor=none;align=center;verticalAlign=middle;whiteSpace=wrap;rounded=0;" vertex="1" parent="ByYCaUUhs_mJVECuXwtD-42">
          <mxGeometry x="-20" y="5" width="60" height="20" as="geometry" />
        </mxCell>
        <mxCell id="ByYCaUUhs_mJVECuXwtD-45" value="" style="curved=1;endArrow=classic;html=1;rounded=0;exitX=1;exitY=0.5;exitDx=0;exitDy=0;entryX=0;entryY=0;entryDx=0;entryDy=0;" edge="1" parent="9JPjnLQtc1eGN0GyWhkx-1">
          <mxGeometry width="50" height="50" relative="1" as="geometry">
            <mxPoint x="260" y="475" as="sourcePoint" />
            <mxPoint x="480" y="430" as="targetPoint" />
            <Array as="points">
              <mxPoint x="350" y="480" />
              <mxPoint x="420" y="440" />
            </Array>
          </mxGeometry>
        </mxCell>
        <mxCell id="ByYCaUUhs_mJVECuXwtD-46" value="copy" style="text;html=1;strokeColor=none;fillColor=none;align=center;verticalAlign=middle;whiteSpace=wrap;rounded=0;" vertex="1" parent="9JPjnLQtc1eGN0GyWhkx-1">
          <mxGeometry x="60" y="510" width="60" height="20" as="geometry" />
        </mxCell>
        <mxCell id="ByYCaUUhs_mJVECuXwtD-47" value="" style="group" vertex="1" connectable="0" parent="9JPjnLQtc1eGN0GyWhkx-1">
          <mxGeometry x="120" y="510" width="150" height="90" as="geometry" />
        </mxCell>
        <mxCell id="ByYCaUUhs_mJVECuXwtD-48" value="" style="rounded=0;whiteSpace=wrap;html=1;" vertex="1" parent="ByYCaUUhs_mJVECuXwtD-47">
          <mxGeometry width="150" height="90" as="geometry" />
        </mxCell>
        <mxCell id="ByYCaUUhs_mJVECuXwtD-49" value="" style="group" vertex="1" connectable="0" parent="ByYCaUUhs_mJVECuXwtD-47">
          <mxGeometry x="30" y="10" width="110" height="30" as="geometry" />
        </mxCell>
        <mxCell id="ByYCaUUhs_mJVECuXwtD-50" value="3" style="rounded=0;whiteSpace=wrap;html=1;" vertex="1" parent="ByYCaUUhs_mJVECuXwtD-49">
          <mxGeometry x="40" width="70" height="30" as="geometry" />
        </mxCell>
        <mxCell id="ByYCaUUhs_mJVECuXwtD-51" value="m_size" style="text;html=1;strokeColor=none;fillColor=none;align=center;verticalAlign=middle;whiteSpace=wrap;rounded=0;" vertex="1" parent="ByYCaUUhs_mJVECuXwtD-49">
          <mxGeometry x="-20" y="5" width="60" height="20" as="geometry" />
        </mxCell>
        <mxCell id="ByYCaUUhs_mJVECuXwtD-52" value="" style="group" vertex="1" connectable="0" parent="ByYCaUUhs_mJVECuXwtD-47">
          <mxGeometry x="30" y="40" width="110" height="30" as="geometry" />
        </mxCell>
        <mxCell id="ByYCaUUhs_mJVECuXwtD-53" value="0x20" style="rounded=0;whiteSpace=wrap;html=1;" vertex="1" parent="ByYCaUUhs_mJVECuXwtD-52">
          <mxGeometry x="40" width="70" height="30" as="geometry" />
        </mxCell>
        <mxCell id="ByYCaUUhs_mJVECuXwtD-54" value="m_players" style="text;html=1;strokeColor=none;fillColor=none;align=center;verticalAlign=middle;whiteSpace=wrap;rounded=0;" vertex="1" parent="ByYCaUUhs_mJVECuXwtD-52">
          <mxGeometry x="-20" y="5" width="60" height="20" as="geometry" />
        </mxCell>
        <mxCell id="ByYCaUUhs_mJVECuXwtD-56" value="Alice" style="rounded=0;whiteSpace=wrap;html=1;" vertex="1" parent="9JPjnLQtc1eGN0GyWhkx-1">
          <mxGeometry x="620" y="510" width="70" height="30" as="geometry" />
        </mxCell>
        <mxCell id="ByYCaUUhs_mJVECuXwtD-57" value="0x20" style="text;html=1;align=center;verticalAlign=middle;whiteSpace=wrap;rounded=0;fontColor=#000000;" vertex="1" parent="9JPjnLQtc1eGN0GyWhkx-1">
          <mxGeometry x="625" y="490" width="60" height="30" as="geometry" />
        </mxCell>
        <mxCell id="ByYCaUUhs_mJVECuXwtD-58" value="Bob" style="rounded=0;whiteSpace=wrap;html=1;" vertex="1" parent="9JPjnLQtc1eGN0GyWhkx-1">
          <mxGeometry x="620" y="540" width="70" height="30" as="geometry" />
        </mxCell>
        <mxCell id="ByYCaUUhs_mJVECuXwtD-59" value="Carlos" style="rounded=0;whiteSpace=wrap;html=1;" vertex="1" parent="9JPjnLQtc1eGN0GyWhkx-1">
          <mxGeometry x="620" y="570" width="70" height="30" as="geometry" />
        </mxCell>
        <mxCell id="ByYCaUUhs_mJVECuXwtD-60" value="" style="curved=1;endArrow=classic;html=1;rounded=0;exitX=1;exitY=0.5;exitDx=0;exitDy=0;entryX=0;entryY=0;entryDx=0;entryDy=0;" edge="1" parent="9JPjnLQtc1eGN0GyWhkx-1" target="ByYCaUUhs_mJVECuXwtD-56">
          <mxGeometry width="50" height="50" relative="1" as="geometry">
            <mxPoint x="260" y="565" as="sourcePoint" />
            <mxPoint x="625" y="513" as="targetPoint" />
            <Array as="points">
              <mxPoint x="370" y="590" />
              <mxPoint x="550" y="550" />
            </Array>
          </mxGeometry>
        </mxCell>
        <mxCell id="ByYCaUUhs_mJVECuXwtD-61" value="Heap" style="rounded=0;whiteSpace=wrap;html=1;dashed=1;verticalAlign=top;fontStyle=1;fillColor=#d5e8d4;strokeColor=#82b366;fontColor=#000000;" vertex="1" parent="9JPjnLQtc1eGN0GyWhkx-1">
          <mxGeometry x="380" y="680" width="370" height="280" as="geometry" />
        </mxCell>
        <mxCell id="ByYCaUUhs_mJVECuXwtD-62" value="Stack" style="rounded=0;whiteSpace=wrap;html=1;dashed=1;verticalAlign=top;fontStyle=1;fillColor=#fff2cc;strokeColor=#d6b656;fontColor=#000000;" vertex="1" parent="9JPjnLQtc1eGN0GyWhkx-1">
          <mxGeometry x="40" y="680" width="280" height="280" as="geometry" />
        </mxCell>
        <mxCell id="ByYCaUUhs_mJVECuXwtD-63" value="" style="rounded=0;whiteSpace=wrap;html=1;" vertex="1" parent="9JPjnLQtc1eGN0GyWhkx-1">
          <mxGeometry x="50" y="710" width="250" height="240" as="geometry" />
        </mxCell>
        <mxCell id="ByYCaUUhs_mJVECuXwtD-64" value="&lt;i&gt;main stack frame&lt;/i&gt;" style="text;html=1;strokeColor=none;fillColor=none;align=left;verticalAlign=middle;whiteSpace=wrap;rounded=0;" vertex="1" parent="9JPjnLQtc1eGN0GyWhkx-1">
          <mxGeometry x="50" y="710" width="190" height="20" as="geometry" />
        </mxCell>
        <mxCell id="ByYCaUUhs_mJVECuXwtD-65" value="Alice" style="rounded=0;whiteSpace=wrap;html=1;" vertex="1" parent="9JPjnLQtc1eGN0GyWhkx-1">
          <mxGeometry x="480" y="750" width="70" height="30" as="geometry" />
        </mxCell>
        <mxCell id="ByYCaUUhs_mJVECuXwtD-66" value="0x60" style="text;html=1;align=center;verticalAlign=middle;whiteSpace=wrap;rounded=0;fontColor=#000000;" vertex="1" parent="9JPjnLQtc1eGN0GyWhkx-1">
          <mxGeometry x="485" y="730" width="60" height="30" as="geometry" />
        </mxCell>
        <mxCell id="ByYCaUUhs_mJVECuXwtD-67" value="Bob" style="rounded=0;whiteSpace=wrap;html=1;" vertex="1" parent="9JPjnLQtc1eGN0GyWhkx-1">
          <mxGeometry x="480" y="780" width="70" height="30" as="geometry" />
        </mxCell>
        <mxCell id="ByYCaUUhs_mJVECuXwtD-68" value="pList" style="text;html=1;strokeColor=none;fillColor=none;align=center;verticalAlign=middle;whiteSpace=wrap;rounded=0;" vertex="1" parent="9JPjnLQtc1eGN0GyWhkx-1">
          <mxGeometry x="60" y="740" width="60" height="20" as="geometry" />
        </mxCell>
        <mxCell id="ByYCaUUhs_mJVECuXwtD-69" value="Carlos" style="rounded=0;whiteSpace=wrap;html=1;" vertex="1" parent="9JPjnLQtc1eGN0GyWhkx-1">
          <mxGeometry x="480" y="810" width="70" height="30" as="geometry" />
        </mxCell>
        <mxCell id="ByYCaUUhs_mJVECuXwtD-70" value="" style="group" vertex="1" connectable="0" parent="9JPjnLQtc1eGN0GyWhkx-1">
          <mxGeometry x="120" y="740" width="150" height="90" as="geometry" />
        </mxCell>
        <mxCell id="ByYCaUUhs_mJVECuXwtD-71" value="" style="rounded=0;whiteSpace=wrap;html=1;" vertex="1" parent="ByYCaUUhs_mJVECuXwtD-70">
          <mxGeometry width="150" height="90" as="geometry" />
        </mxCell>
        <mxCell id="ByYCaUUhs_mJVECuXwtD-72" value="" style="group" vertex="1" connectable="0" parent="ByYCaUUhs_mJVECuXwtD-70">
          <mxGeometry x="30" y="10" width="110" height="30" as="geometry" />
        </mxCell>
        <mxCell id="ByYCaUUhs_mJVECuXwtD-73" value="3" style="rounded=0;whiteSpace=wrap;html=1;" vertex="1" parent="ByYCaUUhs_mJVECuXwtD-72">
          <mxGeometry x="40" width="70" height="30" as="geometry" />
        </mxCell>
        <mxCell id="ByYCaUUhs_mJVECuXwtD-74" value="m_size" style="text;html=1;strokeColor=none;fillColor=none;align=center;verticalAlign=middle;whiteSpace=wrap;rounded=0;" vertex="1" parent="ByYCaUUhs_mJVECuXwtD-72">
          <mxGeometry x="-20" y="5" width="60" height="20" as="geometry" />
        </mxCell>
        <mxCell id="ByYCaUUhs_mJVECuXwtD-75" value="" style="group" vertex="1" connectable="0" parent="ByYCaUUhs_mJVECuXwtD-70">
          <mxGeometry x="30" y="40" width="110" height="30" as="geometry" />
        </mxCell>
        <mxCell id="ByYCaUUhs_mJVECuXwtD-76" value="0x60" style="rounded=0;whiteSpace=wrap;html=1;" vertex="1" parent="ByYCaUUhs_mJVECuXwtD-75">
          <mxGeometry x="40" width="70" height="30" as="geometry" />
        </mxCell>
        <mxCell id="ByYCaUUhs_mJVECuXwtD-77" value="m_players" style="text;html=1;strokeColor=none;fillColor=none;align=center;verticalAlign=middle;whiteSpace=wrap;rounded=0;" vertex="1" parent="ByYCaUUhs_mJVECuXwtD-75">
          <mxGeometry x="-20" y="5" width="60" height="20" as="geometry" />
        </mxCell>
        <mxCell id="ByYCaUUhs_mJVECuXwtD-78" value="" style="curved=1;endArrow=classic;html=1;rounded=0;exitX=1;exitY=0.5;exitDx=0;exitDy=0;entryX=0;entryY=0;entryDx=0;entryDy=0;" edge="1" parent="9JPjnLQtc1eGN0GyWhkx-1">
          <mxGeometry width="50" height="50" relative="1" as="geometry">
            <mxPoint x="260" y="795" as="sourcePoint" />
            <mxPoint x="480" y="750" as="targetPoint" />
            <Array as="points">
              <mxPoint x="350" y="800" />
              <mxPoint x="420" y="760" />
            </Array>
          </mxGeometry>
        </mxCell>
        <mxCell id="ByYCaUUhs_mJVECuXwtD-79" value="other" style="text;html=1;strokeColor=none;fillColor=none;align=center;verticalAlign=middle;whiteSpace=wrap;rounded=0;" vertex="1" parent="9JPjnLQtc1eGN0GyWhkx-1">
          <mxGeometry x="60" y="830" width="60" height="20" as="geometry" />
        </mxCell>
        <mxCell id="ByYCaUUhs_mJVECuXwtD-80" value="" style="group" vertex="1" connectable="0" parent="9JPjnLQtc1eGN0GyWhkx-1">
          <mxGeometry x="120" y="830" width="150" height="90" as="geometry" />
        </mxCell>
        <mxCell id="ByYCaUUhs_mJVECuXwtD-81" value="" style="rounded=0;whiteSpace=wrap;html=1;" vertex="1" parent="ByYCaUUhs_mJVECuXwtD-80">
          <mxGeometry width="150" height="90" as="geometry" />
        </mxCell>
        <mxCell id="ByYCaUUhs_mJVECuXwtD-82" value="" style="group" vertex="1" connectable="0" parent="ByYCaUUhs_mJVECuXwtD-80">
          <mxGeometry x="30" y="10" width="110" height="30" as="geometry" />
        </mxCell>
        <mxCell id="ByYCaUUhs_mJVECuXwtD-83" value="1" style="rounded=0;whiteSpace=wrap;html=1;" vertex="1" parent="ByYCaUUhs_mJVECuXwtD-82">
          <mxGeometry x="40" width="70" height="30" as="geometry" />
        </mxCell>
        <mxCell id="ByYCaUUhs_mJVECuXwtD-84" value="m_size" style="text;html=1;strokeColor=none;fillColor=none;align=center;verticalAlign=middle;whiteSpace=wrap;rounded=0;" vertex="1" parent="ByYCaUUhs_mJVECuXwtD-82">
          <mxGeometry x="-20" y="5" width="60" height="20" as="geometry" />
        </mxCell>
        <mxCell id="ByYCaUUhs_mJVECuXwtD-85" value="" style="group" vertex="1" connectable="0" parent="ByYCaUUhs_mJVECuXwtD-80">
          <mxGeometry x="30" y="40" width="110" height="30" as="geometry" />
        </mxCell>
        <mxCell id="ByYCaUUhs_mJVECuXwtD-86" value="0x20" style="rounded=0;whiteSpace=wrap;html=1;" vertex="1" parent="ByYCaUUhs_mJVECuXwtD-85">
          <mxGeometry x="40" width="70" height="30" as="geometry" />
        </mxCell>
        <mxCell id="ByYCaUUhs_mJVECuXwtD-87" value="m_players" style="text;html=1;strokeColor=none;fillColor=none;align=center;verticalAlign=middle;whiteSpace=wrap;rounded=0;" vertex="1" parent="ByYCaUUhs_mJVECuXwtD-85">
          <mxGeometry x="-20" y="5" width="60" height="20" as="geometry" />
        </mxCell>
        <mxCell id="ByYCaUUhs_mJVECuXwtD-88" value="Diana" style="rounded=0;whiteSpace=wrap;html=1;" vertex="1" parent="9JPjnLQtc1eGN0GyWhkx-1">
          <mxGeometry x="620" y="830" width="70" height="30" as="geometry" />
        </mxCell>
        <mxCell id="ByYCaUUhs_mJVECuXwtD-89" value="0x20" style="text;html=1;align=center;verticalAlign=middle;whiteSpace=wrap;rounded=0;fontColor=#000000;" vertex="1" parent="9JPjnLQtc1eGN0GyWhkx-1">
          <mxGeometry x="625" y="810" width="60" height="30" as="geometry" />
        </mxCell>
        <mxCell id="ByYCaUUhs_mJVECuXwtD-92" value="" style="curved=1;endArrow=classic;html=1;rounded=0;exitX=1;exitY=0.5;exitDx=0;exitDy=0;entryX=0;entryY=0;entryDx=0;entryDy=0;" edge="1" parent="9JPjnLQtc1eGN0GyWhkx-1" target="ByYCaUUhs_mJVECuXwtD-88">
          <mxGeometry width="50" height="50" relative="1" as="geometry">
            <mxPoint x="260" y="885" as="sourcePoint" />
            <mxPoint x="625" y="833" as="targetPoint" />
            <Array as="points">
              <mxPoint x="370" y="910" />
              <mxPoint x="550" y="870" />
            </Array>
          </mxGeometry>
        </mxCell>
        <mxCell id="ByYCaUUhs_mJVECuXwtD-93" value="Heap" style="rounded=0;whiteSpace=wrap;html=1;dashed=1;verticalAlign=top;fontStyle=1;fillColor=#d5e8d4;strokeColor=#82b366;fontColor=#000000;" vertex="1" parent="9JPjnLQtc1eGN0GyWhkx-1">
          <mxGeometry x="380" y="1000" width="370" height="280" as="geometry" />
        </mxCell>
        <mxCell id="ByYCaUUhs_mJVECuXwtD-94" value="Stack" style="rounded=0;whiteSpace=wrap;html=1;dashed=1;verticalAlign=top;fontStyle=1;fillColor=#fff2cc;strokeColor=#d6b656;fontColor=#000000;" vertex="1" parent="9JPjnLQtc1eGN0GyWhkx-1">
          <mxGeometry x="40" y="1000" width="280" height="280" as="geometry" />
        </mxCell>
        <mxCell id="ByYCaUUhs_mJVECuXwtD-95" value="" style="rounded=0;whiteSpace=wrap;html=1;" vertex="1" parent="9JPjnLQtc1eGN0GyWhkx-1">
          <mxGeometry x="50" y="1030" width="250" height="240" as="geometry" />
        </mxCell>
        <mxCell id="ByYCaUUhs_mJVECuXwtD-96" value="&lt;i&gt;main stack frame&lt;/i&gt;" style="text;html=1;strokeColor=none;fillColor=none;align=left;verticalAlign=middle;whiteSpace=wrap;rounded=0;" vertex="1" parent="9JPjnLQtc1eGN0GyWhkx-1">
          <mxGeometry x="50" y="1030" width="190" height="20" as="geometry" />
        </mxCell>
        <mxCell id="ByYCaUUhs_mJVECuXwtD-97" value="Alice" style="rounded=0;whiteSpace=wrap;html=1;" vertex="1" parent="9JPjnLQtc1eGN0GyWhkx-1">
          <mxGeometry x="480" y="1070" width="70" height="30" as="geometry" />
        </mxCell>
        <mxCell id="ByYCaUUhs_mJVECuXwtD-98" value="0x60" style="text;html=1;align=center;verticalAlign=middle;whiteSpace=wrap;rounded=0;fontColor=#000000;" vertex="1" parent="9JPjnLQtc1eGN0GyWhkx-1">
          <mxGeometry x="485" y="1050" width="60" height="30" as="geometry" />
        </mxCell>
        <mxCell id="ByYCaUUhs_mJVECuXwtD-99" value="Bob" style="rounded=0;whiteSpace=wrap;html=1;" vertex="1" parent="9JPjnLQtc1eGN0GyWhkx-1">
          <mxGeometry x="480" y="1100" width="70" height="30" as="geometry" />
        </mxCell>
        <mxCell id="ByYCaUUhs_mJVECuXwtD-100" value="pList" style="text;html=1;strokeColor=none;fillColor=none;align=center;verticalAlign=middle;whiteSpace=wrap;rounded=0;" vertex="1" parent="9JPjnLQtc1eGN0GyWhkx-1">
          <mxGeometry x="60" y="1060" width="60" height="20" as="geometry" />
        </mxCell>
        <mxCell id="ByYCaUUhs_mJVECuXwtD-101" value="Carlos" style="rounded=0;whiteSpace=wrap;html=1;" vertex="1" parent="9JPjnLQtc1eGN0GyWhkx-1">
          <mxGeometry x="480" y="1130" width="70" height="30" as="geometry" />
        </mxCell>
        <mxCell id="ByYCaUUhs_mJVECuXwtD-102" value="" style="group" vertex="1" connectable="0" parent="9JPjnLQtc1eGN0GyWhkx-1">
          <mxGeometry x="120" y="1060" width="150" height="90" as="geometry" />
        </mxCell>
        <mxCell id="ByYCaUUhs_mJVECuXwtD-103" value="" style="rounded=0;whiteSpace=wrap;html=1;" vertex="1" parent="ByYCaUUhs_mJVECuXwtD-102">
          <mxGeometry width="150" height="90" as="geometry" />
        </mxCell>
        <mxCell id="ByYCaUUhs_mJVECuXwtD-104" value="" style="group" vertex="1" connectable="0" parent="ByYCaUUhs_mJVECuXwtD-102">
          <mxGeometry x="30" y="10" width="110" height="30" as="geometry" />
        </mxCell>
        <mxCell id="ByYCaUUhs_mJVECuXwtD-105" value="3" style="rounded=0;whiteSpace=wrap;html=1;" vertex="1" parent="ByYCaUUhs_mJVECuXwtD-104">
          <mxGeometry x="40" width="70" height="30" as="geometry" />
        </mxCell>
        <mxCell id="ByYCaUUhs_mJVECuXwtD-106" value="m_size" style="text;html=1;strokeColor=none;fillColor=none;align=center;verticalAlign=middle;whiteSpace=wrap;rounded=0;" vertex="1" parent="ByYCaUUhs_mJVECuXwtD-104">
          <mxGeometry x="-20" y="5" width="60" height="20" as="geometry" />
        </mxCell>
        <mxCell id="ByYCaUUhs_mJVECuXwtD-107" value="" style="group" vertex="1" connectable="0" parent="ByYCaUUhs_mJVECuXwtD-102">
          <mxGeometry x="30" y="40" width="110" height="30" as="geometry" />
        </mxCell>
        <mxCell id="ByYCaUUhs_mJVECuXwtD-108" value="0x60" style="rounded=0;whiteSpace=wrap;html=1;" vertex="1" parent="ByYCaUUhs_mJVECuXwtD-107">
          <mxGeometry x="40" width="70" height="30" as="geometry" />
        </mxCell>
        <mxCell id="ByYCaUUhs_mJVECuXwtD-109" value="m_players" style="text;html=1;strokeColor=none;fillColor=none;align=center;verticalAlign=middle;whiteSpace=wrap;rounded=0;" vertex="1" parent="ByYCaUUhs_mJVECuXwtD-107">
          <mxGeometry x="-20" y="5" width="60" height="20" as="geometry" />
        </mxCell>
        <mxCell id="ByYCaUUhs_mJVECuXwtD-110" value="" style="curved=1;endArrow=classic;html=1;rounded=0;exitX=1;exitY=0.5;exitDx=0;exitDy=0;entryX=0;entryY=0;entryDx=0;entryDy=0;" edge="1" parent="9JPjnLQtc1eGN0GyWhkx-1">
          <mxGeometry width="50" height="50" relative="1" as="geometry">
            <mxPoint x="260" y="1115" as="sourcePoint" />
            <mxPoint x="480" y="1070" as="targetPoint" />
            <Array as="points">
              <mxPoint x="350" y="1120" />
              <mxPoint x="420" y="1080" />
            </Array>
          </mxGeometry>
        </mxCell>
        <mxCell id="ByYCaUUhs_mJVECuXwtD-111" value="other" style="text;html=1;strokeColor=none;fillColor=none;align=center;verticalAlign=middle;whiteSpace=wrap;rounded=0;" vertex="1" parent="9JPjnLQtc1eGN0GyWhkx-1">
          <mxGeometry x="60" y="1150" width="60" height="20" as="geometry" />
        </mxCell>
        <mxCell id="ByYCaUUhs_mJVECuXwtD-112" value="" style="group" vertex="1" connectable="0" parent="9JPjnLQtc1eGN0GyWhkx-1">
          <mxGeometry x="120" y="1150" width="150" height="90" as="geometry" />
        </mxCell>
        <mxCell id="ByYCaUUhs_mJVECuXwtD-113" value="" style="rounded=0;whiteSpace=wrap;html=1;" vertex="1" parent="ByYCaUUhs_mJVECuXwtD-112">
          <mxGeometry width="150" height="90" as="geometry" />
        </mxCell>
        <mxCell id="ByYCaUUhs_mJVECuXwtD-114" value="" style="group" vertex="1" connectable="0" parent="ByYCaUUhs_mJVECuXwtD-112">
          <mxGeometry x="30" y="10" width="110" height="30" as="geometry" />
        </mxCell>
        <mxCell id="ByYCaUUhs_mJVECuXwtD-115" value="3" style="rounded=0;whiteSpace=wrap;html=1;" vertex="1" parent="ByYCaUUhs_mJVECuXwtD-114">
          <mxGeometry x="40" width="70" height="30" as="geometry" />
        </mxCell>
        <mxCell id="ByYCaUUhs_mJVECuXwtD-116" value="m_size" style="text;html=1;strokeColor=none;fillColor=none;align=center;verticalAlign=middle;whiteSpace=wrap;rounded=0;" vertex="1" parent="ByYCaUUhs_mJVECuXwtD-114">
          <mxGeometry x="-20" y="5" width="60" height="20" as="geometry" />
        </mxCell>
        <mxCell id="ByYCaUUhs_mJVECuXwtD-117" value="" style="group" vertex="1" connectable="0" parent="ByYCaUUhs_mJVECuXwtD-112">
          <mxGeometry x="30" y="40" width="110" height="30" as="geometry" />
        </mxCell>
        <mxCell id="ByYCaUUhs_mJVECuXwtD-118" value="0x60" style="rounded=0;whiteSpace=wrap;html=1;" vertex="1" parent="ByYCaUUhs_mJVECuXwtD-117">
          <mxGeometry x="40" width="70" height="30" as="geometry" />
        </mxCell>
        <mxCell id="ByYCaUUhs_mJVECuXwtD-119" value="m_players" style="text;html=1;strokeColor=none;fillColor=none;align=center;verticalAlign=middle;whiteSpace=wrap;rounded=0;" vertex="1" parent="ByYCaUUhs_mJVECuXwtD-117">
          <mxGeometry x="-20" y="5" width="60" height="20" as="geometry" />
        </mxCell>
        <mxCell id="ByYCaUUhs_mJVECuXwtD-120" value="Diana" style="rounded=0;whiteSpace=wrap;html=1;" vertex="1" parent="9JPjnLQtc1eGN0GyWhkx-1">
          <mxGeometry x="620" y="1150" width="70" height="30" as="geometry" />
        </mxCell>
        <mxCell id="ByYCaUUhs_mJVECuXwtD-121" value="0x20" style="text;html=1;align=center;verticalAlign=middle;whiteSpace=wrap;rounded=0;fontColor=#000000;" vertex="1" parent="9JPjnLQtc1eGN0GyWhkx-1">
          <mxGeometry x="625" y="1130" width="60" height="30" as="geometry" />
        </mxCell>
        <mxCell id="ByYCaUUhs_mJVECuXwtD-122" value="" style="curved=1;endArrow=classic;html=1;rounded=0;exitX=1;exitY=0.5;exitDx=0;exitDy=0;entryX=0;entryY=0.25;entryDx=0;entryDy=0;" edge="1" parent="9JPjnLQtc1eGN0GyWhkx-1" target="ByYCaUUhs_mJVECuXwtD-97">
          <mxGeometry width="50" height="50" relative="1" as="geometry">
            <mxPoint x="260" y="1205" as="sourcePoint" />
            <mxPoint x="625" y="1153" as="targetPoint" />
            <Array as="points">
              <mxPoint x="370" y="1230" />
            </Array>
          </mxGeometry>
        </mxCell>
      </root>
    </mxGraphModel>
  </diagram>
</mxfile>
